<svg
  id="undraw_online_world_re_h4cb"
  xmlns="http://www.w3.org/2000/svg"
  width="733"
  height="728.889"
  viewBox="0 0 733 728.889"
>
  <path
    id="Path_1090"
    data-name="Path 1090"
    d="M927.607,766.8c-5.052,17.526-19.8,29.8-35.191,40.217q-3.223,2.183-6.448,4.266c-.015.006-.03.02-.044.026-.1.066-.207.133-.3.2l-1.328.855.242.109s.237.126-.022.02c-.077-.032-.158-.061-.235-.094-8.939-3.605-18.037-7.476-24.888-14.23-7.107-7.014-11.26-18.014-7.411-27.228a17.591,17.591,0,0,1,1.9-3.419c.312-.447.648-.874,1-1.294a18.856,18.856,0,0,1,32.386,5.73c1.131-10.526-7.549-19.343-15.9-25.848s-17.851-13.583-19.467-24.051c-.9-5.824,1.123-11.468,4.812-16,.114-.138.228-.275.346-.409a27.518,27.518,0,0,1,17.687-9.489c12.813-1.332,25.259,5.451,34.568,14.359C924.293,724.853,933.351,746.869,927.607,766.8Z"
    transform="translate(-233.5 -85.555)"
    fill="#f2f2f2"
  />
  <path
    id="Path_1091"
    data-name="Path 1091"
    d="M903.523,743.873a46.778,46.778,0,0,1,5.6,12.361,40.621,40.621,0,0,1,1.4,12,52.043,52.043,0,0,1-6.816,23.685,74.9,74.9,0,0,1-11.3,15.1q-3.223,2.183-6.448,4.266c-.015.006-.03.02-.044.026-.1.066-.207.133-.3.2l-1.328.855s.479.235.219.129c-.077-.032-.158-.061-.235-.094a41.039,41.039,0,0,0-30.395-44.877c.312-.447.648-.874,1-1.294a43.3,43.3,0,0,1,7.147,2.7,42.424,42.424,0,0,1,19.182,18.493,43.373,43.373,0,0,1,4.722,23.8c.367-.333.735-.673,1.092-1.01,6.793-6.333,12.826-13.6,16.91-21.992A48.415,48.415,0,0,0,909,765.315c-.333-8.653-3.781-16.668-8.773-23.646a101.348,101.348,0,0,0-19.211-19.8,115.157,115.157,0,0,0-23.892-14.751.828.828,0,0,1-.417-1.063.7.7,0,0,1,.346-.409.613.613,0,0,1,.532.023c1.054.485,2.1.977,3.139,1.49a116.466,116.466,0,0,1,24.062,15.873C891.873,729.073,898.541,735.972,903.523,743.873Z"
    transform="translate(-233.5 -85.555)"
    fill="#fff"
  />
  <path
    id="Path_1092"
    data-name="Path 1092"
    d="M240.81,733.413c8.177,28.367,32.053,48.225,56.959,65.093q5.216,3.534,10.436,6.9c.024.01.048.032.072.043.167.108.335.215.491.324l2.149,1.384-.391.176s-.384.2.036.033c.125-.052.256-.1.381-.152,14.469-5.835,29.194-12.1,40.282-23.032,11.5-11.352,18.224-29.157,12-44.07a28.473,28.473,0,0,0-3.083-5.534c-.505-.723-1.049-1.415-1.616-2.094a30.519,30.519,0,0,0-52.417,9.274c-1.83-17.036,12.218-31.307,25.737-41.836S360.734,677.941,363.348,661c1.46-9.426-1.818-18.561-7.789-25.894-.185-.223-.369-.445-.56-.662a44.54,44.54,0,0,0-28.627-15.358c-20.739-2.155-40.883,8.822-55.949,23.241C246.174,665.526,231.514,701.16,240.81,733.413Z"
    transform="translate(-233.5 -85.555)"
    fill="#f2f2f2"
  />
  <path
    id="Path_1093"
    data-name="Path 1093"
    d="M279.791,696.31a75.714,75.714,0,0,0-9.071,20.007,65.745,65.745,0,0,0-2.272,19.417c.373,13.462,4.515,26.617,11.032,38.334a121.233,121.233,0,0,0,18.288,24.439q5.216,3.534,10.436,6.9c.024.01.048.032.072.043.167.108.335.215.491.324l2.149,1.384s-.775.38-.355.208c.125-.052.256-.1.381-.152a66.423,66.423,0,0,1,49.195-72.635c-.505-.723-1.049-1.415-1.616-2.094a70.077,70.077,0,0,0-11.567,4.377A68.665,68.665,0,0,0,315.907,766.8a70.2,70.2,0,0,0-7.644,38.523c-.594-.539-1.19-1.089-1.767-1.634-10.995-10.25-20.76-22.016-27.369-35.595a78.363,78.363,0,0,1-8.206-37.077c.539-14.006,6.12-26.979,14.2-38.272,8.655-12.087,19.506-22.781,31.093-32.045a186.39,186.39,0,0,1,38.671-23.875,1.34,1.34,0,0,0,.674-1.72,1.14,1.14,0,0,0-.56-.662.992.992,0,0,0-.862.037c-1.706.785-3.4,1.581-5.08,2.412a188.5,188.5,0,0,0-38.946,25.691C298.648,672.355,287.855,683.521,279.791,696.31Z"
    transform="translate(-233.5 -85.555)"
    fill="#fff"
  />
  <path
    id="Path_1094"
    data-name="Path 1094"
    d="M794.256,258.5h-4V148.957a63.4,63.4,0,0,0-63.4-63.4H494.768a63.4,63.4,0,0,0-63.4,63.4V749.932a63.4,63.4,0,0,0,63.4,63.4H726.855a63.4,63.4,0,0,0,63.4-63.4V336.479h4Z"
    transform="translate(-233.5 -85.555)"
    fill="#ccc"
  />
  <path
    id="Path_1095"
    data-name="Path 1095"
    d="M776.762,149.4V749.49a47.351,47.351,0,0,1-47.349,47.35h-233.2a47.351,47.351,0,0,1-47.35-47.349V149.4a47.351,47.351,0,0,1,47.349-47.35H524.5a22.507,22.507,0,0,0,20.83,30.99h132.96a22.507,22.507,0,0,0,20.83-30.99h30.29a47.351,47.351,0,0,1,47.35,47.349Z"
    transform="translate(-233.5 -85.555)"
    fill="#fff"
  />
  <circle
    id="Ellipse_148"
    data-name="Ellipse 148"
    cx="7.637"
    cy="7.637"
    r="7.637"
    transform="translate(366.357 399.913)"
    fill="#fff"
  />
  <path
    id="Path_1111"
    data-name="Path 1111"
    d="M965.5,814.445h-731a1,1,0,0,1,0-2h731a1,1,0,0,1,0,2Z"
    transform="translate(-233.5 -85.555)"
    fill="#3f3d56"
  />
</svg>
