<svg
  id="undraw_maker_launch_re_rq81"
  xmlns="http://www.w3.org/2000/svg"
  width="500"
  height="500"
  viewBox="0 0 500 500"
>
  <path
    id="Path_531"
    data-name="Path 531"
    d="M403.333,756.253,383.5,756.8a13.812,13.812,0,0,1-8.486-2.379c-2.154-1.6-3.142-3.768-2.708-5.943l3.9-19.613c.735-3.7,5.27-6.5,10.78-6.649l10.952-.3c5.51-.152,10.192,2.39,11.13,6.044l4.979,19.368c.552,2.148-.314,4.365-2.376,6.083A13.812,13.812,0,0,1,403.333,756.253Z"
    transform="translate(-185.24 -259.466)"
    fill="#3f3d56"
  />
  <path
    id="Path_532"
    data-name="Path 532"
    d="M523.963,755.693l-19.832.548a13.813,13.813,0,0,1-8.486-2.379c-2.154-1.6-3.142-3.768-2.708-5.943l3.9-19.613c.735-3.7,5.27-6.5,10.78-6.649l10.952-.3c5.51-.152,10.192,2.39,11.13,6.044l4.979,19.368c.552,2.148-.314,4.365-2.376,6.083A13.812,13.812,0,0,1,523.963,755.693Z"
    transform="translate(-190.222 -259.466)"
    fill="#3f3d56"
  />
  <path
    id="Path_533"
    data-name="Path 533"
    d="M334.467,589.188a4.331,4.331,0,0,1,1.6-8.308l225.468-6.226a4.33,4.33,0,0,1,4.449,4.208h0a4.336,4.336,0,0,1-4.209,4.448h0L336.3,589.537a4.308,4.308,0,0,1-1.834-.349Z"
    transform="translate(-187.87 -234.92)"
    fill="#3f3d56"
  />
  <rect
    id="Rectangle_461"
    data-name="Rectangle 461"
    width="64.474"
    height="217.68"
    transform="translate(168.31 256.863) rotate(-1.582)"
    fill="#e6e6e6"
  />
  <path
    id="Path_534"
    data-name="Path 534"
    d="M242.126,333.079l-12.389,33.749.011,153.759,15.1,4.329Z"
    transform="translate(-8.983 -81.907)"
    fill="#ccc"
  />
  <path
    id="Path_535"
    data-name="Path 535"
    d="M385.116,457.681c-12.057.342-21.257,21.209-21.036,29.352l.407,14.742,43.659-1.206-.407-14.742C407.511,477.685,397.174,457.357,385.116,457.681Z"
    transform="translate(-184.938 -220.22)"
    fill="#3f3d56"
  />
  <path
    id="Path_536"
    data-name="Path 536"
    d="M354.063,606.44a8.51,8.51,0,0,1-8.731-8.262l-.662-23.991a8.5,8.5,0,1,1,16.994-.469l.662,23.991A8.51,8.51,0,0,1,354.063,606.44Z"
    transform="translate(-183.767 -236.295)"
    fill="#3f3d56"
  />
  <path
    id="Path_537"
    data-name="Path 537"
    d="M193.233,339.284l-.305-15.855,4.158-.1.305,15.8,3.769,230.346-4.159.115"
    transform="translate(-7.442 -81.907)"
    fill="#3f3d56"
  />
  <path
    id="Path_538"
    data-name="Path 538"
    d="M425.067,553.92l-74.739,2.064c-7.139-8.705-7.787-45.793,7.111-52.851l5.842-9.92,45.043-2.2,5.264,10.445C421,507.764,424.82,544.62,425.067,553.92Z"
    transform="translate(-184.729 -227.225)"
    fill="#e6e6e6"
  />
  <path
    id="Path_539"
    data-name="Path 539"
    d="M396.936,536.132l-18.9.522c-3.647.1-6.748-4.631-6.911-10.546S373.8,515.3,377.444,515.2l18.9-.522c3.647-.1,6.748,4.631,6.911,10.546S400.583,536.032,396.936,536.132Z"
    transform="translate(-185.033 -226.873)"
    fill="var(--foreground-secondary)"
  />
  <path
    id="Path_540"
    data-name="Path 540"
    d="M183.151,465.568l-38.959,27.52-6.806,62.05,45.448-15.185Z"
    transform="translate(-5.719 -81.907)"
    fill="#e6e6e6"
  />
  <rect
    id="Rectangle_462"
    data-name="Rectangle 462"
    width="64.474"
    height="217.68"
    transform="translate(287.256 254.198) rotate(-1.582)"
    fill="#e6e6e6"
  />
  <path
    id="Path_541"
    data-name="Path 541"
    d="M302,333.806l13.261,33.416,3.979,153.708-14.979,4.719Z"
    transform="translate(-11.858 -81.907)"
    fill="#ccc"
  />
  <ellipse
    id="Ellipse_17"
    data-name="Ellipse 17"
    cx="8.447"
    cy="11.327"
    rx="8.447"
    ry="11.327"
    transform="translate(373.433 214.458)"
    fill="#e6e6e6"
  />
  <path
    id="Path_542"
    data-name="Path 542"
    d="M508.269,455.051c-12.057.342-21.257,21.209-21.036,29.352l.407,14.742,43.659-1.206-.407-14.742C530.663,475.054,520.326,454.727,508.269,455.051Z"
    transform="translate(-190.046 -219.82)"
    fill="#3f3d56"
  />
  <path
    id="Path_543"
    data-name="Path 543"
    d="M343.567,344.247l-.3-15.855,4.158-.1.3,15.8,3.769,230.346-4.159.115"
    transform="translate(-13.241 -81.907)"
    fill="#3f3d56"
  />
  <path
    id="Path_544"
    data-name="Path 544"
    d="M548.219,551.29l-74.738,2.064c-1.3-7.877.383-44.633,7.111-52.851l5.842-9.92,45.043-2.2,5.264,10.445C550.039,499.912,554.691,536.032,548.219,551.29Z"
    transform="translate(-190.403 -226.808)"
    fill="#e6e6e6"
  />
  <path
    id="Path_545"
    data-name="Path 545"
    d="M520.18,536.813l-18.9.522c-3.647.1-6.768-5.374-6.957-12.2s2.626-12.466,6.273-12.567l18.9-.522c3.647-.1,6.768,5.374,6.957,12.2S523.827,536.712,520.18,536.813Z"
    transform="translate(-190.018 -226.779)"
    fill="var(--foreground-secondary)"
  />
  <path
    id="Path_546"
    data-name="Path 546"
    d="M368.086,449.662l37.663,29.268,3.966,62.3-44.706-17.244Z"
    transform="translate(-15.161 -81.907)"
    fill="#e6e6e6"
  />
  <path
    id="Path_547"
    data-name="Path 547"
    d="M534.754,338.68c-40.413,0-86.857-44.846-127.949-23.539C282.39,379.655,299.516,271.7,263.773,231.552l1.173-2.354c27.059,103.218,51.543,267.692,142.4,83.2,22.759-46.214,97.455,25.22,141.423,23.113l.076,2.829Q541.879,338.681,534.754,338.68Z"
    transform="translate(-184.466 -177.559)"
    fill="var(--border-color-primary)"
  />
  <path
    id="Path_548"
    data-name="Path 548"
    d="M631.751,345.026c-32.216,24.4-96.316,16.691-116.208,58.487-60.228,126.545-111.754,30.148-164.488,19.724l-.486-2.585c52.79,4.378,109.414-2.415,163.751-19.648,49.1-15.571,92.915-38.736,126.692-66.962l1.769,2.209Q637.432,340.725,631.751,345.026Z"
    transform="translate(-196.916 -206.183)"
    fill="var(--border-color-primary)"
  />
  <ellipse
    id="Ellipse_18"
    data-name="Ellipse 18"
    cx="8.447"
    cy="11.327"
    rx="8.447"
    ry="11.327"
    transform="translate(91.93 118.861)"
    fill="#e6e6e6"
  />
  <ellipse
    id="Ellipse_19"
    data-name="Ellipse 19"
    cx="8.447"
    cy="11.327"
    rx="8.447"
    ry="11.327"
    transform="translate(343.65 47.256)"
    fill="#e6e6e6"
  />
  <path
    id="Path_549"
    data-name="Path 549"
    d="M358.656,385.188c-3.862,2.573-7.815-3.551-3.878-6.01C358.639,376.605,362.592,382.729,358.656,385.188Z"
    transform="translate(-183.959 -206.208)"
    fill="#e6e6e6"
  />
  <path
    id="Path_550"
    data-name="Path 550"
    d="M501.656,184.188c-3.862,2.573-7.815-3.551-3.878-6.01C501.639,175.6,505.592,181.729,501.656,184.188Z"
    transform="translate(-189.463 -177.559)"
    fill="#e6e6e6"
  />
  <path
    id="Path_551"
    data-name="Path 551"
    d="M408.749,125.8l-2.457-.539.538-2.458-1.638-.359-.539,2.458-2.457-.538L401.837,126l2.457.539L403.756,129l1.638.359.539-2.458,2.457.539Z"
    transform="translate(-15.461 -17.442)"
    fill="#e6e6e6"
  />
  <circle
    id="Ellipse_20"
    data-name="Ellipse 20"
    cx="10.702"
    cy="10.702"
    r="10.702"
    transform="translate(165.99 22.035)"
    fill="#ff6584"
  />
  <path
    id="Path_552"
    data-name="Path 552"
    d="M439,196.75c-12.057.342-21.257,21.209-21.036,29.352l.407,14.742,43.659-1.206-.407-14.742C461.4,216.753,451.059,196.426,439,196.75Z"
    transform="translate(-187.173 -177.559)"
    fill="#3f3d56"
  />
  <path
    id="Path_553"
    data-name="Path 553"
    d="M465,754.968l-19.832.548a13.812,13.812,0,0,1-8.486-2.379c-2.154-1.6-3.142-3.768-2.708-5.943l3.9-19.613c.736-3.7,5.27-6.5,10.78-6.649l10.952-.3c5.51-.152,10.192,2.39,11.13,6.044l4.979,19.367c.552,2.148-.314,4.365-2.376,6.083A13.812,13.812,0,0,1,465,754.968Z"
    transform="translate(-187.787 -259.466)"
    fill="#3f3d56"
  />
  <rect
    id="Rectangle_463"
    data-name="Rectangle 463"
    width="64.474"
    height="440.016"
    transform="translate(221.868 32.911) rotate(-1.582)"
    fill="#e6e6e6"
  />
  <path
    id="Path_554"
    data-name="Path 554"
    d="M270.868,325.949l-.305-15.855,4.158-.1.3,15.8L278.8,556.141l-4.159.115"
    transform="translate(-10.437 -81.907)"
    fill="#3f3d56"
  />
  <path
    id="Path_555"
    data-name="Path 555"
    d="M486.531,330.851,399.2,333.262c-1.523-9.2.447-52.15,8.308-61.752l2.154-11.462,60.3-1.665,3.155,11.171C481.777,276.922,486.242,319.985,486.531,330.851Z"
    transform="translate(-187.306 -177.559)"
    fill="#e6e6e6"
  />
  <path
    id="Path_556"
    data-name="Path 556"
    d="M471.87,259.735l-62.223,1.718c-2.3.063-4.193-1.142-4.236-2.693a1.952,1.952,0,0,1,.1-.658l9.665-29.775c.414-1.275,2.061-2.211,3.984-2.264l41.264-1.139c1.923-.053,3.619.791,4.1,2.041l11.293,29.2c.578,1.493-.756,3.047-2.98,3.471A6.079,6.079,0,0,1,471.87,259.735Z"
    transform="translate(-187.21 -177.559)"
    fill="#e6e6e6"
  />
  <path
    id="Path_557"
    data-name="Path 557"
    d="M415.786,501.486a7.628,7.628,0,0,1-1.581-.915,5.6,5.6,0,0,1-2.379-4.322l-2.261-81.878c-.093-3.389,3.225-6.241,7.4-6.356l55.7-1.538c4.173-.116,7.643,2.549,7.737,5.938l2.261,81.878a5.6,5.6,0,0,1-2.137,4.446,8.506,8.506,0,0,1-5.261,1.91l-55.7,1.538a8.92,8.92,0,0,1-3.777-.7Z"
    transform="translate(-187.451 -216.124)"
    fill="#3f3d56"
  />
  <path
    id="Path_558"
    data-name="Path 558"
    d="M451.438,254.466l-18.9.522c-3.647.1-6.731-4.02-6.874-9.184s2.709-9.449,6.356-9.55l18.9-.522c3.647-.1,6.731,4.02,6.874,9.184S455.085,254.365,451.438,254.466Z"
    transform="translate(-187.24 -177.559)"
    fill="var(--foreground-secondary)"
  />
  <path
    id="Path_569"
    data-name="Path 569"
    d="M677.185,757.913a2.219,2.219,0,0,1-.265,1.1.782.782,0,0,1-.643.454H178.094c-.5,0-.908-.7-.908-1.553s.407-1.553.908-1.553H676.277a.783.783,0,0,1,.643.454,2.221,2.221,0,0,1,.265,1.1Z"
    transform="translate(-177.185 -259.466)"
    fill="#ccc"
  />
  <path
    id="Path_570"
    data-name="Path 570"
    d="M543.683,601.125a8.51,8.51,0,0,1-8.731-8.262l-.662-23.991a8.5,8.5,0,0,1,16.994-.469l.662,23.991a8.51,8.51,0,0,1-8.262,8.731Z"
    transform="translate(-191.219 -235.49)"
    fill="#3f3d56"
  />
  <path
    id="Path_571"
    data-name="Path 571"
    d="M568.862,713.323a163.294,163.294,0,0,1-21.8-1.606c-40.876-5.547-93.822-24.832-149.086-54.3s-106.243-65.6-143.546-101.746c-18.171-17.606-32.118-34.272-41.452-49.535-9.882-16.158-14.2-30.242-12.848-41.86,2.643-22.634,26.047-27.585,45.214-27.753l.007,3.292c-26.322.231-41.851,9.2-43.726,25.259-2.388,20.451,17.09,52.38,53.441,87.6,37.221,36.062,88.106,72.128,143.283,101.551S506.376,702.9,547.161,708.432c39.831,5.407,64.046-3.223,66.434-23.675,1.983-16.981-19.016-30.289-44.734-58.731h3.976c18.687,20.666,45.038,35.679,42.253,59.528-1.357,11.618-8.269,19.711-20.545,24.053C587.548,712.082,578.953,713.323,568.862,713.323Z"
    transform="translate(-177.185 -279.39)"
    fill="#ccc"
  />
  <path
    id="Path_572"
    data-name="Path 572"
    d="M232.323,669.154c-9.807,0-16.182-2.546-19-7.607-5.565-9.98,3.755-27.493,27.7-52.051l2.011,2.141c-22.243,22.813-31.913,40-27.231,48.4,2.963,5.313,11.781,7.217,25.506,5.5,13.625-1.7,31.682-6.765,53.668-15.055,45.264-17.067,102.052-45.856,159.9-81.064s109.831-72.616,146.371-105.335c7.018-6.286,13.388-12.333,18.931-17.971a194.341,194.341,0,0,0,20.076-23.377c8.2-11.627,10.962-20.581,8-25.895-4.948-8.875-25.735-8.04-58.535,2.353l-.833-2.871c35.19-11.149,56-11.483,61.849-.992,3.635,6.519.886,16.337-8.168,29.184a197.262,197.262,0,0,1-20.386,23.748c-5.587,5.683-12,11.772-19.066,18.1-36.667,32.833-88.8,70.354-146.794,105.649S341.37,636.181,295.948,653.308c-22.191,8.367-40.461,13.485-54.3,15.211a75.8,75.8,0,0,1-9.323.635Z"
    transform="translate(-177.185 -234.846)"
    fill="#ccc"
  />
</svg>
