<svg
  xmlns="http://www.w3.org/2000/svg"
  width="738.82"
  height="576.27"
  viewBox="0 0 738.82 576.27"
>
  <g id="undraw_firmware_re_fgdy" transform="translate(0 0)">
    <path
      id="Path_38"
      data-name="Path 38"
      d="M844.969,410.389s-17.37,9.661-12.37,20.661,76,2,76,2-5-15-14-18S844.969,410.389,844.969,410.389Z"
      transform="translate(-230.59 -161.865)"
      fill="#3f3d56"
    />
    <path
      id="Path_39"
      data-name="Path 39"
      d="M838.2,412.965a33.8,33.8,0,0,1,11.446-4.733,77.516,77.516,0,0,1,41.177,1.284l-.245-.2a45.945,45.945,0,0,1,14.666,12.228Z"
      transform="translate(-230.59 -161.865)"
      fill="#ccc"
    />
    <path
      id="Path_40"
      data-name="Path 40"
      d="M915.119,460.27q-.36,5.385-.72,10.76a172.7,172.7,0,0,1-2.45,22.38c-1.22,6.19-3.16,12.33-6.63,17.6s-8.62,9.61-14.72,11.21a26.972,26.972,0,0,1-11.42.25c-7.13-4.05-11.96,1.13-4.84,6.4a55.167,55.167,0,0,0,5.03,3.31l3.23,49.87-60-13,11.71-66.34a39.585,39.585,0,0,1-4.9-5.35c-6.71-8.91-9.02-20.52-8.58-31.66s3.42-22.02,6.37-32.77a84.285,84.285,0,0,1,2.72-8.61c1.31.54,2.64,1.03,3.99,1.44,8.63,2.62,17.8,2.83,26.82,2.82q24.075-.015,48.09-1.88a46.143,46.143,0,0,1,6.53,19.94,92.583,92.583,0,0,1-.23,13.63Z"
      transform="translate(-230.59 -161.865)"
      fill="#ccc"
    />
    <path
      id="Path_41"
      data-name="Path 41"
      d="M658.5,595.645l92.37,8.2.99.09V209.795l-.99-.69a288.323,288.323,0,0,0-62.01-32.94l-4.72,65.1-.43,5.96-4.67,64.56-1.44,19.86-18.93,261.7Z"
      transform="translate(-230.59 -161.865)"
      fill="#e6e6e6"
    />
    <path
      id="Path_42"
      data-name="Path 42"
      d="M430.07,202.455c-.66.42-1.32.84-1.98,1.28v400.2l1.98-.18,91.37-8.11-.17-2.3-18.93-261.7-1.44-19.86-4.67-64.56-.43-5.96-4.95-68.27a287.688,287.688,0,0,0-60.78,29.46Z"
      transform="translate(-230.59 -161.865)"
      fill="#e6e6e6"
    />
    <path
      id="Path_43"
      data-name="Path 43"
      d="M428.09,203.735c-1.33.86-2.66,1.74-3.97,2.63V609.4c0,10.07,5.97,18.51,13.95,20.66a15.249,15.249,0,0,0,4,.53h296.8a15.119,15.119,0,0,0,3.99-.53,17.06,17.06,0,0,0,7.78-4.66,22.919,22.919,0,0,0,6.18-16V213.375c-1.64-1.21-3.29-2.41-4.96-3.58l-.99-.69V609.4a16.11,16.11,0,0,1-.46,3.85c-1.41,5.95-6.06,10.31-11.54,10.31H442.07c-6.62,0-12-6.35-12-14.16V202.455C429.41,202.875,428.75,203.295,428.09,203.735Z"
      transform="translate(-230.59 -161.865)"
      fill="#e6e6e6"
    />
    <rect
      id="Rectangle_1"
      data-name="Rectangle 1"
      width="326.752"
      height="5.959"
      transform="translate(196.503 79.404)"
      fill="#e6e6e6"
    />
    <path
      id="Path_44"
      data-name="Path 44"
      d="M653.77,165.255c-1.98-.49-3.96-.95-5.96-1.38v161.81h5.96Z"
      transform="translate(-230.59 -161.865)"
      fill="#e6e6e6"
    />
    <path
      id="Path_45"
      data-name="Path 45"
      d="M533.13,161.865c-1.99.37-3.98.75-5.96,1.16v162.66h5.96Z"
      transform="translate(-230.59 -161.865)"
      fill="#e6e6e6"
    />
    <path
      id="Path_46"
      data-name="Path 46"
      d="M363.03,620.155a26.712,26.712,0,0,0,1.93,9.98,25.54,25.54,0,0,0,1.75,3.56,27.094,27.094,0,0,0,3.02,4.18,26.761,26.761,0,0,0,20.12,9.11H781.16a26.82,26.82,0,0,0,0-53.64H389.85a26.846,26.846,0,0,0-26.82,26.81Z"
      transform="translate(-230.59 -161.865)"
      fill="#e6e6e6"
    />
    <rect
      id="Rectangle_2"
      data-name="Rectangle 2"
      width="324.766"
      height="19.863"
      transform="translate(521.268 169.782) rotate(180)"
      fill="#e6e6e6"
    />
    <path
      id="Path_47"
      data-name="Path 47"
      d="M575.571,305.825H603.38a10.925,10.925,0,0,1-10.925,10.925H586.5a10.925,10.925,0,0,1-10.925-10.925Z"
      transform="translate(948.361 460.71) rotate(180)"
      fill="#e6e6e6"
    />
    <path
      id="Path_48"
      data-name="Path 48"
      d="M230.59,635.475a289,289,0,0,0,28.12,28.95H941.29a288.981,288.981,0,0,0,28.12-28.95Z"
      transform="translate(-230.59 -161.865)"
      fill="#3f3d56"
    />
    <path
      id="Path_49"
      data-name="Path 49"
      d="M415.75,538.665v102.56H487.6V538.665a3.448,3.448,0,0,0-2.43-3.3,3.175,3.175,0,0,0-1.03-.16H419.22A3.463,3.463,0,0,0,415.75,538.665Zm28.04,35.24a7.67,7.67,0,1,1,15.34,0v11.9a7.67,7.67,0,1,1-15.34,0Z"
      transform="translate(-230.59 -161.865)"
      fill="#2f2e41"
    />
    <path
      id="Path_50"
      data-name="Path 50"
      d="M415.53,637.945v9.89a1.946,1.946,0,0,0,1.93,1.94h68.43a1.94,1.94,0,0,0,1.93-1.94v-9.89Z"
      transform="translate(-230.59 -161.865)"
      fill="#3f3d56"
    />
    <path
      id="Path_51"
      data-name="Path 51"
      d="M302.72,384.145V571.4a9.007,9.007,0,0,0,9,9h277.5a9.007,9.007,0,0,0,9-9V384.145a9.012,9.012,0,0,0-9-8.99H311.72a9.011,9.011,0,0,0-9,8.99Z"
      transform="translate(-230.59 -161.865)"
      fill="#3f3d56"
    />
    <path
      id="Path_52"
      data-name="Path 52"
      d="M309.23,386.475v182.62a4.818,4.818,0,0,0,4.81,4.81H586.91a4.818,4.818,0,0,0,4.81-4.81V386.475a4.82,4.82,0,0,0-4.81-4.82H314.04a4.82,4.82,0,0,0-4.81,4.82Z"
      transform="translate(-230.59 -161.865)"
      fill="#3f3d56"
    />
    <path
      id="Path_53"
      data-name="Path 53"
      d="M364.87,652.1a2.948,2.948,0,0,0,2.32,1.11H529.53a2.987,2.987,0,0,0,2.92-3.6l-2.52-11.97a2.992,2.992,0,0,0-1.86-2.17,2.9,2.9,0,0,0-1.06-.2H369.7a2.9,2.9,0,0,0-1.06.2,2.992,2.992,0,0,0-1.86,2.17l-2.52,11.97a2.985,2.985,0,0,0,.61,2.49Z"
      transform="translate(-230.59 -161.865)"
      fill="#2f2e41"
    />
    <rect
      id="Rectangle_3"
      data-name="Rectangle 3"
      width="5"
      height="3"
      rx="0.488"
      transform="translate(295.267 478.566) rotate(180)"
      fill="#3f3d56"
    />
    <rect
      id="Rectangle_4"
      data-name="Rectangle 4"
      width="5"
      height="3"
      rx="0.488"
      transform="translate(285.267 478.566) rotate(180)"
      fill="#3f3d56"
    />
    <rect
      id="Rectangle_5"
      data-name="Rectangle 5"
      width="5"
      height="3"
      rx="0.488"
      transform="translate(275.267 478.566) rotate(180)"
      fill="#3f3d56"
    />
    <rect
      id="Rectangle_6"
      data-name="Rectangle 6"
      width="5"
      height="3"
      rx="0.488"
      transform="translate(265.267 478.566) rotate(180)"
      fill="#3f3d56"
    />
    <rect
      id="Rectangle_7"
      data-name="Rectangle 7"
      width="5"
      height="3"
      rx="0.488"
      transform="translate(255.267 478.566) rotate(180)"
      fill="#3f3d56"
    />
    <rect
      id="Rectangle_8"
      data-name="Rectangle 8"
      width="5"
      height="3"
      rx="0.488"
      transform="translate(245.267 478.566) rotate(180)"
      fill="#3f3d56"
    />
    <rect
      id="Rectangle_9"
      data-name="Rectangle 9"
      width="5"
      height="3"
      rx="0.488"
      transform="translate(235.267 478.566) rotate(180)"
      fill="#3f3d56"
    />
    <rect
      id="Rectangle_10"
      data-name="Rectangle 10"
      width="5"
      height="3"
      rx="0.488"
      transform="translate(225.267 478.566) rotate(180)"
      fill="#3f3d56"
    />
    <rect
      id="Rectangle_11"
      data-name="Rectangle 11"
      width="5"
      height="3"
      rx="0.488"
      transform="translate(215.267 478.566) rotate(180)"
      fill="#3f3d56"
    />
    <rect
      id="Rectangle_12"
      data-name="Rectangle 12"
      width="5"
      height="3"
      rx="0.488"
      transform="translate(205.267 478.566) rotate(180)"
      fill="#3f3d56"
    />
    <rect
      id="Rectangle_13"
      data-name="Rectangle 13"
      width="5"
      height="3"
      rx="0.488"
      transform="translate(195.267 478.566) rotate(180)"
      fill="#3f3d56"
    />
    <rect
      id="Rectangle_14"
      data-name="Rectangle 14"
      width="5"
      height="3"
      rx="0.488"
      transform="translate(185.267 478.566) rotate(180)"
      fill="#3f3d56"
    />
    <rect
      id="Rectangle_15"
      data-name="Rectangle 15"
      width="5"
      height="3"
      rx="0.488"
      transform="translate(175.267 478.566) rotate(180)"
      fill="#3f3d56"
    />
    <rect
      id="Rectangle_16"
      data-name="Rectangle 16"
      width="5"
      height="3"
      rx="0.488"
      transform="translate(165.267 478.566) rotate(180)"
      fill="#3f3d56"
    />
    <rect
      id="Rectangle_17"
      data-name="Rectangle 17"
      width="5"
      height="3"
      rx="0.488"
      transform="translate(155.267 478.566) rotate(180)"
      fill="#3f3d56"
    />
    <rect
      id="Rectangle_18"
      data-name="Rectangle 18"
      width="5"
      height="3"
      rx="0.488"
      transform="translate(145.267 478.566) rotate(180)"
      fill="#3f3d56"
    />
    <rect
      id="Rectangle_19"
      data-name="Rectangle 19"
      width="5"
      height="3"
      rx="0.488"
      transform="translate(295.385 483.566) rotate(180)"
      fill="#3f3d56"
    />
    <rect
      id="Rectangle_20"
      data-name="Rectangle 20"
      width="5"
      height="3"
      rx="0.488"
      transform="translate(285.385 483.566) rotate(180)"
      fill="#3f3d56"
    />
    <rect
      id="Rectangle_21"
      data-name="Rectangle 21"
      width="5"
      height="3"
      rx="0.488"
      transform="translate(275.385 483.566) rotate(180)"
      fill="#3f3d56"
    />
    <rect
      id="Rectangle_22"
      data-name="Rectangle 22"
      width="5"
      height="3"
      rx="0.488"
      transform="translate(265.385 483.566) rotate(180)"
      fill="#3f3d56"
    />
    <rect
      id="Rectangle_23"
      data-name="Rectangle 23"
      width="5"
      height="3"
      rx="0.488"
      transform="translate(255.385 483.566) rotate(180)"
      fill="#3f3d56"
    />
    <rect
      id="Rectangle_24"
      data-name="Rectangle 24"
      width="5"
      height="3"
      rx="0.488"
      transform="translate(245.385 483.566) rotate(180)"
      fill="#3f3d56"
    />
    <rect
      id="Rectangle_25"
      data-name="Rectangle 25"
      width="5"
      height="3"
      rx="0.488"
      transform="translate(235.385 483.566) rotate(180)"
      fill="#3f3d56"
    />
    <rect
      id="Rectangle_26"
      data-name="Rectangle 26"
      width="5"
      height="3"
      rx="0.488"
      transform="translate(225.385 483.566) rotate(180)"
      fill="#3f3d56"
    />
    <rect
      id="Rectangle_27"
      data-name="Rectangle 27"
      width="5"
      height="3"
      rx="0.488"
      transform="translate(215.385 483.566) rotate(180)"
      fill="#3f3d56"
    />
    <rect
      id="Rectangle_28"
      data-name="Rectangle 28"
      width="5"
      height="3"
      rx="0.488"
      transform="translate(205.385 483.566) rotate(180)"
      fill="#3f3d56"
    />
    <rect
      id="Rectangle_29"
      data-name="Rectangle 29"
      width="5"
      height="3"
      rx="0.488"
      transform="translate(195.385 483.566) rotate(180)"
      fill="#3f3d56"
    />
    <rect
      id="Rectangle_30"
      data-name="Rectangle 30"
      width="5"
      height="3"
      rx="0.488"
      transform="translate(185.385 483.566) rotate(180)"
      fill="#3f3d56"
    />
    <rect
      id="Rectangle_31"
      data-name="Rectangle 31"
      width="5"
      height="3"
      rx="0.488"
      transform="translate(175.385 483.566) rotate(180)"
      fill="#3f3d56"
    />
    <rect
      id="Rectangle_32"
      data-name="Rectangle 32"
      width="5"
      height="3"
      rx="0.488"
      transform="translate(165.385 483.566) rotate(180)"
      fill="#3f3d56"
    />
    <rect
      id="Rectangle_33"
      data-name="Rectangle 33"
      width="5"
      height="3"
      rx="0.488"
      transform="translate(155.385 483.566) rotate(180)"
      fill="#3f3d56"
    />
    <rect
      id="Rectangle_34"
      data-name="Rectangle 34"
      width="5"
      height="3"
      rx="0.488"
      transform="translate(145.385 483.566) rotate(180)"
      fill="#3f3d56"
    />
    <rect
      id="Rectangle_35"
      data-name="Rectangle 35"
      width="40"
      height="3"
      rx="0.488"
      transform="translate(247.385 489.566) rotate(180)"
      fill="#3f3d56"
    />
    <path
      id="Path_54"
      data-name="Path 54"
      d="M327.752,406.812H583.075a1.015,1.015,0,1,0,0-2.031H327.752a1.015,1.015,0,1,0,0,2.031Z"
      transform="translate(-230.59 -161.865)"
      fill="#3f3d56"
    />
    <ellipse
      id="Ellipse_10"
      data-name="Ellipse 10"
      cx="5.95"
      cy="6.083"
      rx="5.95"
      ry="6.083"
      transform="translate(329.155 225.566)"
      fill="#3f3d56"
    />
    <ellipse
      id="Ellipse_11"
      data-name="Ellipse 11"
      cx="5.95"
      cy="6.083"
      rx="5.95"
      ry="6.083"
      transform="translate(308.599 225.566)"
      fill="#3f3d56"
    />
    <ellipse
      id="Ellipse_12"
      data-name="Ellipse 12"
      cx="5.95"
      cy="6.083"
      rx="5.95"
      ry="6.083"
      transform="translate(288.043 225.566)"
      fill="#3f3d56"
    />
    <path
      id="Path_55"
      data-name="Path 55"
      d="M339.04,390.045a1.1,1.1,0,0,0,1.09,1.1h14.6a1.105,1.105,0,0,0,0-2.21h-14.6a1.1,1.1,0,0,0-1.09,1.11Z"
      transform="translate(-230.59 -161.865)"
      fill="#3f3d56"
    />
    <path
      id="Path_56"
      data-name="Path 56"
      d="M339.04,394.2a1.1,1.1,0,0,0,1.09,1.1h14.6a1.105,1.105,0,1,0,0-2.21h-14.6a1.1,1.1,0,0,0-1.09,1.11Z"
      transform="translate(-230.59 -161.865)"
      fill="#3f3d56"
    />
    <path
      id="Path_57"
      data-name="Path 57"
      d="M339.04,398.335a1.1,1.1,0,0,0,1.09,1.11h14.6a1.105,1.105,0,0,0,0-2.21h-14.6a1.1,1.1,0,0,0-1.09,1.1Z"
      transform="translate(-230.59 -161.865)"
      fill="#3f3d56"
    />
    <rect
      id="Rectangle_36"
      data-name="Rectangle 36"
      width="11.006"
      height="5.76"
      rx="2.88"
      transform="translate(104.836 268.543)"
      fill="#e6e6e6"
    />
    <rect
      id="Rectangle_37"
      data-name="Rectangle 37"
      width="11.006"
      height="5.76"
      rx="2.88"
      transform="translate(164.836 268.543)"
      fill="#e6e6e6"
    />
    <rect
      id="Rectangle_38"
      data-name="Rectangle 38"
      width="11.006"
      height="5.76"
      rx="2.88"
      transform="translate(181.836 268.543)"
      fill="#e6e6e6"
    />
    <rect
      id="Rectangle_39"
      data-name="Rectangle 39"
      width="38.366"
      height="5.76"
      rx="2.88"
      transform="translate(121.156 268.063)"
      fill="#e6e6e6"
    />
    <rect
      id="Rectangle_40"
      data-name="Rectangle 40"
      width="38.366"
      height="5.76"
      rx="2.88"
      transform="translate(201.156 268.063)"
      fill="#e6e6e6"
    />
    <rect
      id="Rectangle_41"
      data-name="Rectangle 41"
      width="11.006"
      height="5.76"
      rx="2.88"
      transform="translate(120.836 281.543)"
      fill="#e6e6e6"
    />
    <rect
      id="Rectangle_42"
      data-name="Rectangle 42"
      width="11.006"
      height="5.76"
      rx="2.88"
      transform="translate(180.836 281.543)"
      fill="#e6e6e6"
    />
    <rect
      id="Rectangle_43"
      data-name="Rectangle 43"
      width="11.006"
      height="5.76"
      rx="2.88"
      transform="translate(197.836 281.543)"
      fill="#e6e6e6"
    />
    <rect
      id="Rectangle_44"
      data-name="Rectangle 44"
      width="38.366"
      height="5.76"
      rx="2.88"
      transform="translate(137.156 281.063)"
      fill="#e6e6e6"
    />
    <rect
      id="Rectangle_45"
      data-name="Rectangle 45"
      width="38.366"
      height="5.76"
      rx="2.88"
      transform="translate(217.156 281.063)"
      fill="#e6e6e6"
    />
    <rect
      id="Rectangle_46"
      data-name="Rectangle 46"
      width="11.006"
      height="5.76"
      rx="2.88"
      transform="translate(136.836 294.543)"
      fill="#e6e6e6"
    />
    <rect
      id="Rectangle_47"
      data-name="Rectangle 47"
      width="11.006"
      height="5.76"
      rx="2.88"
      transform="translate(196.836 294.543)"
      fill="#e6e6e6"
    />
    <rect
      id="Rectangle_48"
      data-name="Rectangle 48"
      width="11.006"
      height="5.76"
      rx="2.88"
      transform="translate(213.836 294.543)"
      fill="#e6e6e6"
    />
    <rect
      id="Rectangle_49"
      data-name="Rectangle 49"
      width="38.366"
      height="5.76"
      rx="2.88"
      transform="translate(153.156 294.063)"
      fill="#e6e6e6"
    />
    <rect
      id="Rectangle_50"
      data-name="Rectangle 50"
      width="38.366"
      height="5.76"
      rx="2.88"
      transform="translate(233.156 294.063)"
      fill="#e6e6e6"
    />
    <rect
      id="Rectangle_51"
      data-name="Rectangle 51"
      width="11.006"
      height="5.76"
      rx="2.88"
      transform="translate(152.836 307.543)"
      fill="#e6e6e6"
    />
    <rect
      id="Rectangle_52"
      data-name="Rectangle 52"
      width="11.006"
      height="5.76"
      rx="2.88"
      transform="translate(212.836 307.543)"
      fill="#e6e6e6"
    />
    <rect
      id="Rectangle_53"
      data-name="Rectangle 53"
      width="11.006"
      height="5.76"
      rx="2.88"
      transform="translate(229.836 307.543)"
      fill="#e6e6e6"
    />
    <rect
      id="Rectangle_54"
      data-name="Rectangle 54"
      width="38.366"
      height="5.76"
      rx="2.88"
      transform="translate(169.156 307.063)"
      fill="#e6e6e6"
    />
    <rect
      id="Rectangle_55"
      data-name="Rectangle 55"
      width="11.006"
      height="5.76"
      rx="2.88"
      transform="translate(164.836 359.237)"
      fill="#e6e6e6"
    />
    <rect
      id="Rectangle_56"
      data-name="Rectangle 56"
      width="11.006"
      height="5.76"
      rx="2.88"
      transform="translate(181.836 359.237)"
      fill="#e6e6e6"
    />
    <rect
      id="Rectangle_57"
      data-name="Rectangle 57"
      width="38.366"
      height="5.76"
      rx="2.88"
      transform="translate(201.156 359.717)"
      fill="#e6e6e6"
    />
    <rect
      id="Rectangle_58"
      data-name="Rectangle 58"
      width="11.006"
      height="5.76"
      rx="2.88"
      transform="translate(104.836 359.237)"
      fill="#e6e6e6"
    />
    <rect
      id="Rectangle_59"
      data-name="Rectangle 59"
      width="38.366"
      height="5.76"
      rx="2.88"
      transform="translate(121.156 359.717)"
      fill="#e6e6e6"
    />
    <rect
      id="Rectangle_60"
      data-name="Rectangle 60"
      width="11.006"
      height="5.76"
      rx="2.88"
      transform="translate(120.836 346.237)"
      fill="#e6e6e6"
    />
    <rect
      id="Rectangle_61"
      data-name="Rectangle 61"
      width="11.006"
      height="5.76"
      rx="2.88"
      transform="translate(180.836 346.237)"
      fill="#e6e6e6"
    />
    <rect
      id="Rectangle_62"
      data-name="Rectangle 62"
      width="11.006"
      height="5.76"
      rx="2.88"
      transform="translate(197.836 346.237)"
      fill="#e6e6e6"
    />
    <rect
      id="Rectangle_63"
      data-name="Rectangle 63"
      width="38.366"
      height="5.76"
      rx="2.88"
      transform="translate(137.156 346.717)"
      fill="#e6e6e6"
    />
    <rect
      id="Rectangle_64"
      data-name="Rectangle 64"
      width="11.006"
      height="5.76"
      rx="2.88"
      transform="translate(136.836 333.237)"
      fill="#e6e6e6"
    />
    <rect
      id="Rectangle_65"
      data-name="Rectangle 65"
      width="11.006"
      height="5.76"
      rx="2.88"
      transform="translate(196.836 333.237)"
      fill="#e6e6e6"
    />
    <rect
      id="Rectangle_66"
      data-name="Rectangle 66"
      width="11.006"
      height="5.76"
      rx="2.88"
      transform="translate(213.836 333.237)"
      fill="#e6e6e6"
    />
    <rect
      id="Rectangle_67"
      data-name="Rectangle 67"
      width="38.366"
      height="5.76"
      rx="2.88"
      transform="translate(153.156 333.717)"
      fill="#e6e6e6"
    />
    <rect
      id="Rectangle_68"
      data-name="Rectangle 68"
      width="11.006"
      height="5.76"
      rx="2.88"
      transform="translate(152.836 320.237)"
      fill="#e6e6e6"
    />
    <rect
      id="Rectangle_69"
      data-name="Rectangle 69"
      width="11.006"
      height="5.76"
      rx="2.88"
      transform="translate(212.836 320.237)"
      fill="#e6e6e6"
    />
    <rect
      id="Rectangle_70"
      data-name="Rectangle 70"
      width="11.006"
      height="5.76"
      rx="2.88"
      transform="translate(229.836 320.237)"
      fill="#e6e6e6"
    />
    <rect
      id="Rectangle_71"
      data-name="Rectangle 71"
      width="38.366"
      height="5.76"
      rx="2.88"
      transform="translate(169.156 320.717)"
      fill="#e6e6e6"
    />
    <path
      id="Path_58"
      data-name="Path 58"
      d="M324.69,708.905c.61.31,1.23.62,1.84.92,15.8,7.9,28.44,12.39,45.73,17.31,1.46-16.3,2.87-44.95,4.24-62.71.36-4.61.72-8.48,1.07-11.21a15.181,15.181,0,0,1,.88-4.25l-.06,4.25-.15,11.21-.87,64.11a288.585,288.585,0,0,0,65.84,9.49c1.16.03,2.3.05,3.4.07.39.01.77.02,1.15.02,1.25.01,2.49.02,3.74.02a289.269,289.269,0,0,0,69.54-8.43c-.49-16.13-.98-44.46-1.45-65.28-.1-4.07-.19-7.86-.29-11.21-.19-7.16-.39-12.32-.58-14.05a4.362,4.362,0,0,1,.39.97,97.159,97.159,0,0,1,1.89,13.08c.35,3.35.7,7.14,1.05,11.21,1.86,21.63,3.8,51.04,5.8,63.51a285.48,285.48,0,0,0,34.97-12.03q9-3.75,17.68-8.09c-1.1-7.2-2.25-15.27-3.43-23.64-.92-6.49-1.87-13.16-2.84-19.75-1.5-10.18-23.79-81.32-25.2-84.02-1.21-2.31-2.36-4.49-3.45-6.5-2.64-4.88-4.88-8.77-6.54-11.23a55.257,55.257,0,0,0-29.28-22.21l-.3-.08-.21.09-20.45-6.28-2.99-.92-2.01-.62-7.08-5.39-3.85-2.93-3.61-2.75-7.06-5.37-43.71,2.69-8.51,20.49-19.06,6.97-.33-.15-.29-.12-.3.08a55.306,55.306,0,0,0-29.28,22.21c-.94,1.41-2.08,3.27-3.37,5.52-1.1,1.91-2.3,4.09-3.6,6.5-1.85,3.43-3.87,7.3-6.01,11.49-.47.92-.95,1.86-1.43,2.81q-1.335,2.64-2.71,5.39c-2.13,4.25-4.33,8.69-6.53,13.2-1.91,3.91-3.84,11.95-5.74,22.18-1.57,8.5-3.13,18.52-4.64,28.95-1.98,13.52.13,29.71-1.66,42.15C324.92,707.365,324.8,708.135,324.69,708.905Z"
      transform="translate(-230.59 -161.865)"
      fill="#3f3d56"
    />
    <path
      id="Path_59"
      data-name="Path 59"
      d="M303.59,473.566l-8.5-32.792-7.5,28.3Z"
      opacity="0.2"
    />
    <path
      id="Path_60"
      data-name="Path 60"
      d="M308.07,614.065c3.04,41.88-.11,60.32,16.67,94.85a286.164,286.164,0,0,0,47.52,18.22q2.55.72,5.11,1.4a288.585,288.585,0,0,0,65.84,9.49c1.16.03,2.3.05,3.4.07.39.01.77.02,1.15.02,1.25.01,2.49.02,3.74.02a289.269,289.269,0,0,0,69.54-8.43q3.42-.84,6.81-1.77a285.48,285.48,0,0,0,34.97-12.03q9-3.75,17.68-8.09c1.31-.66,2.62-1.32,3.91-2,6.63-11.66,10.4-25.84,10.48-42.88C590.3,633.575,318.21,588.745,308.07,614.065Z"
      transform="translate(-230.59 -161.865)"
      fill="#2f2e41"
    />
    <path
      id="Path_61"
      data-name="Path 61"
      d="M308.078,621.237c-.155-2.593-.329-5.271-.531-8.06,10.14-25.32,282.23,19.51,286.82,48.87-.013,2.692-.128,5.3-.321,7.855C582.93,640.924,324.441,598.316,308.078,621.237Z"
      transform="translate(-230.59 -161.865)"
      opacity="0.2"
    />
    <path
      id="Path_62"
      data-name="Path 62"
      d="M246.419,635.051a6.416,6.416,0,0,0,6.183,4.331l26.492-.682a6.328,6.328,0,0,0,5.981-4.657l3.749-40.087a9.8,9.8,0,0,0,4.238.871,9.661,9.661,0,1,0-.485-19.317,8.177,8.177,0,0,0-1.736.181,6.548,6.548,0,0,0-4.874-2.1l-40.751,1.052a5.858,5.858,0,0,0-1.005.125,6.365,6.365,0,0,0-4.873,8.265Zm43.173-43.817,2.668-9.553a6.506,6.506,0,0,0,.02-3.375c.129,0,.244-.062.373-.062a6.91,6.91,0,1,1,.324,13.817A6.505,6.505,0,0,1,289.593,591.234Z"
      transform="translate(-230.59 -161.865)"
      fill="#2f2e41"
    />
    <path
      id="Path_63"
      data-name="Path 63"
      d="M244.211,574.765c.868,4.964,10.629,8.454,22.366,7.847,10.793-.5,19.617-4.287,21.234-8.779a6.024,6.024,0,0,0-1.844-.246l-40.751,1.052a5.858,5.858,0,0,0-1.005.125Z"
      transform="translate(-230.59 -161.865)"
      fill="#3f3d56"
    />
    <path
      id="Path_64"
      data-name="Path 64"
      d="M268.728,613.023a.5.5,0,0,0,.151-.066l5.753-3.766a.5.5,0,0,0,0-.836l-5.98-3.917a.5.5,0,1,0-.548.836l5.341,3.5-5.114,3.348a.5.5,0,0,0,.4.9Z"
      transform="translate(-230.59 -161.865)"
      fill="#3f3d56"
    />
    <path
      id="Path_65"
      data-name="Path 65"
      d="M259.641,613.442a.5.5,0,0,0,.126-.918l-5.3-3.04,5.126-3.807a.5.5,0,1,0-.6-.8l-5.739,4.263a.5.5,0,0,0,.049.835l5.965,3.42A.5.5,0,0,0,259.641,613.442Z"
      transform="translate(-230.59 -161.865)"
      fill="#3f3d56"
    />
    <path
      id="Path_66"
      data-name="Path 66"
      d="M268.156,616.323a.482.482,0,0,0,.137-.058.5.5,0,0,0,.167-.687L260.3,602.169a.5.5,0,1,0-.854.521l8.155,13.408a.5.5,0,0,0,.55.224Z"
      transform="translate(-230.59 -161.865)"
      fill="#3f3d56"
    />
    <rect
      id="Rectangle_72"
      data-name="Rectangle 72"
      width="89"
      height="78"
      transform="translate(582.009 398.186)"
      fill="#3f3d56"
    />
    <path
      id="Path_67"
      data-name="Path 67"
      d="M914.79,451.1a47.543,47.543,0,0,0,4.144,28.743c1.608,3.279,3.6,7.228,1.642,10.311a6.351,6.351,0,0,1-4.784,2.651,15.577,15.577,0,0,1-5.583-.723"
      transform="translate(-230.59 -161.865)"
      fill="#ccc"
    />
    <ellipse
      id="Ellipse_13"
      data-name="Ellipse 13"
      cx="3"
      cy="2.5"
      rx="3"
      ry="2.5"
      transform="translate(603.009 254.186)"
      fill="#3f3d56"
    />
    <ellipse
      id="Ellipse_14"
      data-name="Ellipse 14"
      cx="3"
      cy="2.5"
      rx="3"
      ry="2.5"
      transform="translate(614.009 255.186)"
      fill="#3f3d56"
    />
    <ellipse
      id="Ellipse_15"
      data-name="Ellipse 15"
      cx="3"
      cy="2.5"
      rx="3"
      ry="2.5"
      transform="translate(625.009 260.186)"
      fill="#3f3d56"
    />
    <ellipse
      id="Ellipse_16"
      data-name="Ellipse 16"
      cx="3"
      cy="2.5"
      rx="3"
      ry="2.5"
      transform="translate(638.009 257.186)"
      fill="#3f3d56"
    />
    <path
      id="Path_68"
      data-name="Path 68"
      d="M598.524,471.434c14.57-4.045,30.8.29,42.058,10.22A43.888,43.888,0,0,1,653.461,501.8c2.875,9.259,3.35,19.025,3.651,28.65.333,10.642.622,21.285.932,31.927.3,10.147.33,20.342,1.007,30.472.568,8.5,1.929,17.325,6.478,24.7,4.218,6.835,10.881,11.451,18.412,13.995,7.633,2.579,15.861,3.179,23.867,3.126a184.219,184.219,0,0,0,27.828-2.2c17.487-2.8,34.76-9.947,45.44-24.689A40.91,40.91,0,0,0,789,584.749c.225-9.675-2.866-19.045-6.251-27.982-3.295-8.7-6.859-17.264-8.944-26.356a110.578,110.578,0,0,1-2.749-25.943,114.048,114.048,0,0,1,12.229-50.225A98.678,98.678,0,0,1,798.3,432.169c6.168-6.712,13.807-12.253,22.89-14.069a27.637,27.637,0,0,1,13.368.538c1.853.555,2.645-2.34.8-2.893-9-2.694-18.773-.646-26.751,4.031-7.844,4.6-14.043,11.5-19.3,18.809a116.169,116.169,0,0,0-16.429,99.955c5.339,17.489,16.95,35.694,11.962,54.621-4.366,16.567-19.492,27.825-35.117,32.911-9.479,3.085-19.418,4.391-29.331,5.066-8.378.571-16.869.934-25.222-.143-7.673-.989-15.565-3.334-21.514-8.485-6.521-5.645-9.5-13.758-10.8-22.083-1.468-9.42-1.252-19.133-1.529-28.638l-.945-32.443c-.534-18.324-.074-38.631-12-53.814a49.958,49.958,0,0,0-39.7-18.61,44.882,44.882,0,0,0-10.955,1.618,1.5,1.5,0,0,0,.8,2.893Z"
      transform="translate(-230.59 -161.865)"
      fill="#3f3d56"
    />
    <path
      id="Path_69"
      data-name="Path 69"
      d="M385.556,452.455a57.571,57.571,0,1,0,114.037-15.91l-.114-.817a57.567,57.567,0,1,0-113.913,16.725Z"
      transform="translate(-230.59 -161.865)"
      fill="#ffb6b6"
    />
    <path
      id="Path_70"
      data-name="Path 70"
      d="M436.308,500.059c-2.977-6-6.035-12.433-5.227-19.078s7.3-13.015,13.7-11.063c3.829,1.168,6.732,4.935,10.731,5.115,5.5.247,8.635-6.059,10.33-11.3l6.9-21.342c13.313,10.459-3.548-.506,12.944-4.335,6.47-1.5,13-4.41,16.781-9.872s3.729-13.913-1.495-18.016c-2.561-2.012-5.963-2.768-8.412-4.916a9.407,9.407,0,0,1,7.457-16.4l-17.566-2.136,5.2-9.48c-3.76,2.984-9,3.4-13.732,2.567s-9.183-2.765-13.809-4.047c-22.207-6.153-47.956,4.761-58.977,25a22.478,22.478,0,0,0-24.484,7.159c-4.681,5.982-5.932,13.947-6.089,21.541a93.367,93.367,0,0,0,9.662,43.219c2.07,4.171,4.516,8.264,8.033,11.315s43.271,19.955,47.859,19.158"
      transform="translate(-230.59 -161.865)"
      fill="#2f2e41"
    />
    <path
      id="Path_71"
      data-name="Path 71"
      d="M851.6,460.551a29.66,29.66,0,0,1-.99,7.69v.01c-.01.05-.03.1-.04.15-2.02,7.43-6.84,12.65-12.47,12.65-5.6,0-10.4-5.18-12.45-12.55-.14-.51-.26-1.02-.37-1.55-.14-.59-.25-1.2-.34-1.83-.08-.5-.14-1.01-.19-1.53-.07-.72-.12-1.44-.13-2.19v-.01c-.02-.28-.02-.56-.02-.84v-.25l.01-.01a29.3,29.3,0,0,1,.25-3.79c.07-.53.15-1.04.25-1.55.12-.62.25-1.23.41-1.83.13-.53.28-1.04.44-1.55.22-.68.46-1.34.73-1.97.17-.41.35-.81.53-1.2,2.46-5.06,6.42-8.35,10.88-8.35,6.17,0,11.37,6.29,12.98,14.87.02.13.05.26.06.39v.01a29.583,29.583,0,0,1,.46,5.23Z"
      transform="translate(-230.59 -161.865)"
      fill="#e6e6e6"
    />
    <path
      id="Path_72"
      data-name="Path 72"
      d="M827.349,448.84a.8.8,0,0,1-.66.76c.17-.41.35-.81.53-1.2A.839.839,0,0,1,827.349,448.84Z"
      transform="translate(-230.59 -161.865)"
      fill="#3f3d56"
    />
    <rect
      id="Rectangle_73"
      data-name="Rectangle 73"
      width="10.354"
      height="1.555"
      rx="0.777"
      transform="translate(599.004 286.065)"
      fill="#3f3d56"
    />
    <path
      id="Path_73"
      data-name="Path 73"
      d="M827.079,452.34a.781.781,0,0,1-.78.78h-.78c.13-.53.28-1.04.44-1.55h.34a.779.779,0,0,1,.78.77Z"
      transform="translate(-230.59 -161.865)"
      fill="#3f3d56"
    />
    <rect
      id="Rectangle_74"
      data-name="Rectangle 74"
      width="2.97"
      height="1.555"
      rx="0.777"
      transform="translate(598.108 289.703)"
      fill="#3f3d56"
    />
    <rect
      id="Rectangle_75"
      data-name="Rectangle 75"
      width="10.354"
      height="1.555"
      rx="0.777"
      transform="translate(603.323 289.573)"
      fill="#3f3d56"
    />
    <rect
      id="Rectangle_76"
      data-name="Rectangle 76"
      width="2.97"
      height="1.555"
      rx="0.777"
      transform="translate(597.838 293.211)"
      fill="#3f3d56"
    />
    <rect
      id="Rectangle_77"
      data-name="Rectangle 77"
      width="2.97"
      height="1.555"
      rx="0.777"
      transform="translate(602.426 293.211)"
      fill="#3f3d56"
    />
    <path
      id="Path_74"
      data-name="Path 74"
      d="M827,455.72a.781.781,0,0,1-.78.78h-1.36c.07-.53.15-1.04.25-1.55h1.11a.773.773,0,0,1,.78.77Z"
      transform="translate(-230.59 -161.865)"
      fill="#3f3d56"
    />
    <rect
      id="Rectangle_78"
      data-name="Rectangle 78"
      width="10.354"
      height="1.555"
      rx="0.777"
      transform="translate(607.641 293.082)"
      fill="#3f3d56"
    />
    <path
      id="Path_75"
      data-name="Path 75"
      d="M827.349,460.84a.772.772,0,0,1-.78.77h-1.41a.791.791,0,0,1-.54-.21v-.01c-.02-.28-.02-.56-.02-.84v-.25l.01-.01a.77.77,0,0,1,.55-.23h1.41A.781.781,0,0,1,827.349,460.84Z"
      transform="translate(-230.59 -161.865)"
      fill="#ccc"
    />
    <rect
      id="Rectangle_79"
      data-name="Rectangle 79"
      width="10.354"
      height="1.555"
      rx="0.777"
      transform="translate(599.004 298.065)"
      fill="#ccc"
    />
    <path
      id="Path_76"
      data-name="Path 76"
      d="M827.079,464.34a.781.781,0,0,1-.78.78h-1.36c-.08-.5-.14-1.01-.19-1.53a.34.34,0,0,1,.14-.02h1.41a.779.779,0,0,1,.78.77Z"
      transform="translate(-230.59 -161.865)"
      fill="#ccc"
    />
    <rect
      id="Rectangle_80"
      data-name="Rectangle 80"
      width="2.97"
      height="1.555"
      rx="0.777"
      transform="translate(598.108 301.703)"
      fill="#ccc"
    />
    <rect
      id="Rectangle_81"
      data-name="Rectangle 81"
      width="10.354"
      height="1.555"
      rx="0.777"
      transform="translate(603.323 301.573)"
      fill="#ccc"
    />
    <rect
      id="Rectangle_82"
      data-name="Rectangle 82"
      width="2.97"
      height="1.555"
      rx="0.777"
      transform="translate(597.838 305.211)"
      fill="#ccc"
    />
    <rect
      id="Rectangle_83"
      data-name="Rectangle 83"
      width="2.97"
      height="1.555"
      rx="0.777"
      transform="translate(602.426 305.211)"
      fill="#ccc"
    />
    <path
      id="Path_77"
      data-name="Path 77"
      d="M827,467.72a.781.781,0,0,1-.78.78h-.57c-.14-.51-.26-1.02-.37-1.55h.94a.773.773,0,0,1,.78.77Z"
      transform="translate(-230.59 -161.865)"
      fill="#ccc"
    />
    <rect
      id="Rectangle_84"
      data-name="Rectangle 84"
      width="10.354"
      height="1.555"
      rx="0.777"
      transform="translate(607.641 305.082)"
      fill="#ccc"
    />
  </g>
</svg>
