<svg
  xmlns="http://www.w3.org/2000/svg"
  width="3117.5"
  height="1360.156"
  viewBox="0 0 3117.5 1360.156"
>
  <g id="undraw_circles_y-7-s2" transform="translate(-56 257.86)">
    <ellipse
      id="Ellipse_103"
      data-name="Ellipse 103"
      cx="40.92"
      cy="7.87"
      rx="40.92"
      ry="7.87"
      transform="translate(77.495 168.244)"
      fill="var(--foreground-secondary)"
    />
    <ellipse
      id="Ellipse_104"
      data-name="Ellipse 104"
      cx="4.76"
      cy="6.24"
      rx="4.76"
      ry="6.24"
      transform="translate(113.317 162.896)"
      fill="#3f3d56"
    />
    <ellipse
      id="Ellipse_105"
      data-name="Ellipse 105"
      cx="4.76"
      cy="6.24"
      rx="4.76"
      ry="6.24"
      transform="translate(113.317 154.756)"
      fill="#3f3d56"
    />
    <ellipse
      id="Ellipse_106"
      data-name="Ellipse 106"
      cx="4.76"
      cy="6.24"
      rx="4.76"
      ry="6.24"
      transform="translate(113.317 143.305)"
      fill="#3f3d56"
    />
    <ellipse
      id="Ellipse_107"
      data-name="Ellipse 107"
      cx="4.76"
      cy="6.24"
      rx="4.76"
      ry="6.24"
      transform="translate(113.317 131.839)"
      fill="#3f3d56"
    />
    <ellipse
      id="Ellipse_108"
      data-name="Ellipse 108"
      cx="4.76"
      cy="6.24"
      rx="4.76"
      ry="6.24"
      transform="translate(113.317 120.387)"
      fill="#3f3d56"
    />
    <ellipse
      id="Ellipse_109"
      data-name="Ellipse 109"
      cx="4.76"
      cy="6.24"
      rx="4.76"
      ry="6.24"
      transform="translate(113.317 108.936)"
      fill="#3f3d56"
    />
    <ellipse
      id="Ellipse_110"
      data-name="Ellipse 110"
      cx="4.76"
      cy="6.24"
      rx="4.76"
      ry="6.24"
      transform="translate(113.317 97.484)"
      fill="#3f3d56"
    />
    <path
      id="Path_968"
      data-name="Path 968"
      d="M342.15,582.56a22.267,22.267,0,0,0,1.77-2.62l-12.51-2.05,13.53.1a22.87,22.87,0,0,0,.44-18.08l-18.16,9.42L344,557a22.82,22.82,0,1,0-37.69,25.54,22.518,22.518,0,0,0-2.6,4.16l16.24,8.44-17.32-5.82a22.78,22.78,0,0,0,3.68,21.43,22.82,22.82,0,1,0,35.87,0,22.82,22.82,0,0,0,0-28.21Z"
      transform="translate(-206.134 -493.429)"
      fill="var(--foreground-secondary)"
    />
    <path
      id="Path_969"
      data-name="Path 969"
      d="M301.39,596.66a22.71,22.71,0,0,0,4.89,14.11,22.82,22.82,0,1,0,35.87,0C345.21,606.89,301.39,594.1,301.39,596.66Z"
      transform="translate(-206.116 -500.128)"
      opacity="0.1"
    />
    <ellipse
      id="Ellipse_111"
      data-name="Ellipse 111"
      cx="40.92"
      cy="7.87"
      rx="40.92"
      ry="7.87"
      transform="translate(899.08 1047.521)"
      fill="var(--foreground-secondary)"
    />
    <ellipse
      id="Ellipse_112"
      data-name="Ellipse 112"
      cx="4.76"
      cy="6.24"
      rx="4.76"
      ry="6.24"
      transform="translate(934.56 1045.811)"
      fill="#3f3d56"
    />
    <ellipse
      id="Ellipse_113"
      data-name="Ellipse 113"
      cx="4.76"
      cy="6.24"
      rx="4.76"
      ry="6.24"
      transform="translate(934.56 1038.191)"
      fill="#3f3d56"
    />
    <ellipse
      id="Ellipse_114"
      data-name="Ellipse 114"
      cx="4.76"
      cy="6.24"
      rx="4.76"
      ry="6.24"
      transform="translate(934.56 1030.571)"
      fill="#3f3d56"
    />
    <ellipse
      id="Ellipse_115"
      data-name="Ellipse 115"
      cx="4.76"
      cy="6.24"
      rx="4.76"
      ry="6.24"
      transform="translate(934.56 1022.941)"
      fill="#3f3d56"
    />
    <ellipse
      id="Ellipse_116"
      data-name="Ellipse 116"
      cx="4.76"
      cy="6.24"
      rx="4.76"
      ry="6.24"
      transform="translate(934.56 1015.321)"
      fill="#3f3d56"
    />
    <ellipse
      id="Ellipse_117"
      data-name="Ellipse 117"
      cx="4.76"
      cy="6.24"
      rx="4.76"
      ry="6.24"
      transform="translate(934.56 1007.701)"
      fill="#3f3d56"
    />
    <ellipse
      id="Ellipse_118"
      data-name="Ellipse 118"
      cx="4.76"
      cy="6.24"
      rx="4.76"
      ry="6.24"
      transform="translate(934.56 1000.081)"
      fill="#3f3d56"
    />
    <path
      id="Path_970"
      data-name="Path 970"
      d="M1027.15,655.56a22.267,22.267,0,0,0,1.77-2.62l-12.51-2.05,13.53.1a22.871,22.871,0,0,0,.44-18.08l-18.16,9.42L1029,630a22.82,22.82,0,1,0-37.69,25.54,22.521,22.521,0,0,0-2.6,4.16l16.24,8.44-17.32-5.82a22.78,22.78,0,0,0,3.68,21.43,22.82,22.82,0,1,0,35.87,0,22.82,22.82,0,0,0,0-28.21Z"
      transform="translate(-70 298.601)"
      fill="var(--foreground-secondary)"
    />
    <path
      id="Path_971"
      data-name="Path 971"
      d="M986.39,669.66a22.71,22.71,0,0,0,4.89,14.11,22.82,22.82,0,1,0,35.87,0C1030.21,679.89,986.39,667.1,986.39,669.66Z"
      transform="translate(-70 298.601)"
      opacity="0.1"
    />
    <circle
      id="Ellipse_119"
      data-name="Ellipse 119"
      cx="15.27"
      cy="15.27"
      r="15.27"
      transform="translate(389.16 78.42)"
      fill="var(--foreground-secondary)"
      opacity="0.1"
    />
    <circle
      id="Ellipse_120"
      data-name="Ellipse 120"
      cx="25.6"
      cy="25.6"
      r="25.6"
      transform="translate(433.46 0)"
      fill="var(--foreground-secondary)"
      opacity="0.1"
    />
    <circle
      id="Ellipse_121"
      data-name="Ellipse 121"
      cx="25.6"
      cy="25.6"
      r="25.6"
      transform="translate(399.58 208.773)"
      fill="var(--foreground-secondary)"
      opacity="0.1"
    />
    <circle
      id="Ellipse_122"
      data-name="Ellipse 122"
      cx="15.27"
      cy="15.27"
      r="15.27"
      transform="translate(948.66 435.212)"
      fill="var(--foreground-secondary)"
      opacity="0.1"
    />
    <circle
      id="Ellipse_123"
      data-name="Ellipse 123"
      cx="25.6"
      cy="25.6"
      r="25.6"
      transform="translate(883.69 309.243)"
      fill="var(--foreground-secondary)"
      opacity="0.1"
    />
    <circle
      id="Ellipse_124"
      data-name="Ellipse 124"
      cx="25.6"
      cy="25.6"
      r="25.6"
      transform="translate(917.58 518.016)"
      fill="var(--foreground-secondary)"
      opacity="0.1"
    />
    <circle
      id="Ellipse_125"
      data-name="Ellipse 125"
      cx="8.65"
      cy="8.65"
      r="8.65"
      transform="translate(92.12 488.061)"
      fill="var(--foreground-secondary)"
      opacity="0.1"
    />
    <circle
      id="Ellipse_126"
      data-name="Ellipse 126"
      cx="14.5"
      cy="14.5"
      r="14.5"
      transform="translate(1597.35 163.152)"
      fill="var(--foreground-secondary)"
      opacity="0.1"
    />
    <circle
      id="Ellipse_127"
      data-name="Ellipse 127"
      cx="14.5"
      cy="14.5"
      r="14.5"
      transform="translate(1527.95 200.414)"
      fill="var(--foreground-secondary)"
      opacity="0.1"
    />
    <circle
      id="Ellipse_128"
      data-name="Ellipse 128"
      cx="8.65"
      cy="8.65"
      r="8.65"
      transform="translate(733.12 402.523)"
      fill="var(--foreground-secondary)"
      opacity="0.1"
    />
    <circle
      id="Ellipse_129"
      data-name="Ellipse 129"
      cx="14.5"
      cy="14.5"
      r="14.5"
      transform="translate(764.35 341.495)"
      fill="var(--foreground-secondary)"
      opacity="0.1"
    />
    <circle
      id="Ellipse_130"
      data-name="Ellipse 130"
      cx="14.5"
      cy="14.5"
      r="14.5"
      transform="translate(694.95 378.757)"
      fill="var(--foreground-secondary)"
      opacity="0.1"
    />
    <circle
      id="Ellipse_131"
      data-name="Ellipse 131"
      cx="36.25"
      cy="36.25"
      r="36.25"
      transform="translate(180.33 180.87)"
      fill="var(--foreground-secondary)"
      opacity="0.1"
    />
    <circle
      id="Ellipse_132"
      data-name="Ellipse 132"
      cx="20.92"
      cy="20.92"
      r="20.92"
      transform="translate(1876.66 138.74)"
      fill="var(--foreground-secondary)"
      opacity="0.1"
    />
    <circle
      id="Ellipse_133"
      data-name="Ellipse 133"
      cx="20.92"
      cy="20.92"
      r="20.92"
      transform="translate(2083.66 365.918)"
      fill="var(--foreground-secondary)"
      opacity="0.1"
    />
    <ellipse
      id="Ellipse_134"
      data-name="Ellipse 134"
      cx="61.915"
      cy="24"
      rx="61.915"
      ry="24"
      transform="translate(56.5 154.911)"
      fill="none"
      stroke="#444053"
      stroke-miterlimit="10"
      stroke-width="1"
    />
    <ellipse
      id="Ellipse_135"
      data-name="Ellipse 135"
      cx="119.5"
      cy="24"
      rx="119.5"
      ry="24"
      transform="translate(820.5 1032.391)"
      fill="none"
      stroke="#444053"
      stroke-miterlimit="10"
      stroke-width="1"
    />
  </g>
  <path
    id="Path_1009"
    data-name="Path 1009"
    d="M-20061.99-6997.907s117.654-19.582,212.785,117.728,71.6,344.373,222.977,533.879c97.184,121.663,272.367,163.527,378.357,225.405,10.5,6.129,23.738,13.292,30.295,16.831,28.979,15.641,16.17,5.322,52.555,31.328"
    transform="translate(20123.5 7430.86)"
    fill="none"
    stroke="var(--foreground-default)"
    stroke-width="5"
  />
  <path
    id="Path_1010"
    data-name="Path 1010"
    d="M884.13,204.23l12.43,7.89L889,198.39a12.32,12.32,0,0,1,7.52-2.68h.2a14.65,14.65,0,0,0,2.58-.19l4.22,2.67-1.81-3.28a15.06,15.06,0,0,0,7.37-5.6l7.55,4.78-4.77-8.66c4.41-5.3,10.36-8.54,16.9-8.54,7.85,0,14.83,4.66,19.34,11.93a14.45,14.45,0,0,0,12.79,6.89h.42c8.66,0,15.68,9.82,15.68,21.93s-7,21.93-15.68,21.93a11.81,11.81,0,0,1-5.46-1.37,22.59,22.59,0,0,0-19-.37,19.77,19.77,0,0,1-16.13,0,22.62,22.62,0,0,0-18.81.36,11.86,11.86,0,0,1-5.41,1.34c-8.66,0-15.68-9.82-15.68-21.93a27.89,27.89,0,0,1,3.31-13.37Z"
    transform="translate(1031.5 52.28)"
    fill="var(--border-color-primary)"
  />
  <path
    id="Path_1011"
    data-name="Path 1011"
    d="M907.56,236.32A23.14,23.14,0,0,1,921,237.78a19.77,19.77,0,0,0,16.13,0,22.63,22.63,0,0,1,19,.38,11.8,11.8,0,0,0,5.46,1.36c7.69,0,14.09-7.75,15.43-18a14.56,14.56,0,0,1-3.85-4.15c-4.51-7.26-11.5-11.93-19.34-11.93s-14.75,4.61-19.26,11.8a14.83,14.83,0,0,1-12.78,7h-.2C915.45,224.25,910.14,229.16,907.56,236.32Z"
    transform="translate(1031.5 52.28)"
    opacity="0.03"
  />
  <path
    id="Path_1012"
    data-name="Path 1012"
    d="M884.13,204.23l12.43,7.89L889,198.39a12.32,12.32,0,0,1,7.52-2.68h.2a14.65,14.65,0,0,0,2.58-.19l4.22,2.67-1.81-3.28a15.06,15.06,0,0,0,7.37-5.6l7.55,4.78-4.77-8.66c4.41-5.3,10.36-8.54,16.9-8.54,7.85,0,14.83,4.66,19.34,11.93a14.45,14.45,0,0,0,12.79,6.89h.42c8.66,0,15.68,9.82,15.68,21.93s-7,21.93-15.68,21.93a11.81,11.81,0,0,1-5.46-1.37,22.59,22.59,0,0,0-19-.37,19.77,19.77,0,0,1-16.13,0,22.62,22.62,0,0,0-18.81.36,11.86,11.86,0,0,1-5.41,1.34c-8.66,0-15.68-9.82-15.68-21.93a27.89,27.89,0,0,1,3.31-13.37Z"
    transform="translate(334.164 149.97)"
    fill="var(--border-color-primary)"
  />
  <path
    id="Path_1013"
    data-name="Path 1013"
    d="M907.56,236.32A23.14,23.14,0,0,1,921,237.78a19.77,19.77,0,0,0,16.13,0,22.63,22.63,0,0,1,19,.38,11.8,11.8,0,0,0,5.46,1.36c7.69,0,14.09-7.75,15.43-18a14.56,14.56,0,0,1-3.85-4.15c-4.51-7.26-11.5-11.93-19.34-11.93s-14.75,4.61-19.26,11.8a14.83,14.83,0,0,1-12.78,7h-.2C915.45,224.25,910.14,229.16,907.56,236.32Z"
    transform="translate(334.164 149.97)"
    opacity="0.03"
  />
  <g id="undraw_fitness_tracker_3033" transform="translate(1656.5 -33.15)">
    <path
      id="Path_972"
      data-name="Path 972"
      d="M1042.65,768a36.993,36.993,0,0,1-.8,7.76c-.1.48-.21,1-.32,1.41-2.84,11.39-10.85,19.72-20.41,20.25h-1c-10.11,0-18.66-8.72-21.48-20.73-.08-.32-.15-.64-.22-1a37.005,37.005,0,0,1-.8-7.76c0-16.27,10.07-29.45,22.5-29.45S1042.65,751.75,1042.65,768Z"
      transform="translate(395.775 407.434)"
      fill="#3f3d56"
    />
    <path
      id="Path_973"
      data-name="Path 973"
      d="M1042.65,768a36.993,36.993,0,0,1-.8,7.76c-.1.48-.21,1-.32,1.41h-1a45.759,45.759,0,0,1-7.36-1,44.914,44.914,0,0,1-6.56,1.5,45.869,45.869,0,0,1-5.14.48h-1.74a46.427,46.427,0,0,1-6.164-.411,45.177,45.177,0,0,1-9.666-2.4,45.584,45.584,0,0,1-5.22,1.4c-.08-.32-.15-.64-.22-1a37.009,37.009,0,0,1-.8-7.76c0-16.27,10.07-29.45,22.5-29.45S1042.65,751.75,1042.65,768Z"
      transform="translate(370.349 407.435)"
      opacity="0.1"
    />
    <path
      id="Path_974"
      data-name="Path 974"
      d="M1014.185,680.209a23.812,23.812,0,0,0-2.35-10.362l-12.693,4.14,11.143-6.871a21.73,21.73,0,0,0-16.482-9.854,23.455,23.455,0,0,0-1.713-2.374l-18.228,5.95,14.952-9.215a21.124,21.124,0,0,0-20.391-3.536,22.593,22.593,0,0,0-14.147,15.8l15.614,18.852-16.938-12.851a23.7,23.7,0,0,0-6.888,29.181c4.92,10.172,16.2,15.03,26.521,11.415a21.1,21.1,0,0,0,14.045.4,21.177,21.177,0,0,0,18.475-4.523,23.445,23.445,0,0,0,8.206-17.936c0-.5,0-1.006-.048-1.509a24.018,24.018,0,0,0,.921-6.71Z"
      transform="translate(446.814 471.687)"
      fill="var(--foreground-secondary)"
    />
    <rect
      id="Rectangle_490"
      data-name="Rectangle 490"
      width="48.19"
      height="9.79"
      rx="2.54"
      transform="translate(699.532 33.81)"
      fill="#e6e8ec"
    />
    <circle
      id="Ellipse_137"
      data-name="Ellipse 137"
      cx="5.55"
      cy="5.55"
      r="5.55"
      transform="translate(773.098 33.15)"
      fill="#e6e8ec"
    />
    <path
      id="Path_980"
      data-name="Path 980"
      d="M199.54,783a30.664,30.664,0,0,0-5.415-5.33c-2.779-2.31-5.646-4.66-8.921-5.45-2.875-.69-5.838-.11-8.785-.31a19.022,19.022,0,0,1-13.425-7.71c-2.084-2.7-3.73-6-6.237-8.09a11.44,11.44,0,0,0-9.352-2.15,22.234,22.234,0,0,0-2.763.71,56.408,56.408,0,0,0-2.172,15.61c0,25.41,16.444,26.29,36.737,26.29,9.847,0,18.784-.21,25.38-3.33l-1.1-2.58A38.125,38.125,0,0,0,199.54,783Z"
      transform="translate(-77.309 407.434)"
      opacity="0.1"
    />
    <path
      id="Path_1003"
      data-name="Path 1003"
      d="M336,108.7l-15.52,9.84,9.42-17.13a15.34,15.34,0,0,0-9.39-3.35h-.25a18.16,18.16,0,0,1-3.22-.24l-5.26,3.33,2.26-4.1a18.62,18.62,0,0,1-9.2-7l-9.42,6,5.95-10.81c-5.51-6.61-12.93-10.66-21.09-10.66-9.79,0-18.51,5.82-24.14,14.89a18,18,0,0,1-16,8.6h-.53c-10.81,0-19.57,12.25-19.57,27.37s8.76,27.37,19.57,27.37a14.73,14.73,0,0,0,6.82-1.71,28.19,28.19,0,0,1,23.68-.46,24.66,24.66,0,0,0,20.14,0,28.25,28.25,0,0,1,23.48.46,14.65,14.65,0,0,0,6.74,1.67c10.81,0,19.57-12.26,19.57-27.37A34.71,34.71,0,0,0,336,108.7Z"
      transform="translate(-344 39.43)"
      fill="var(--border-color-primary)"
    />
    <path
      id="Path_1004"
      data-name="Path 1004"
      d="M306.74,148.75A28.89,28.89,0,0,0,290,150.57a24.71,24.71,0,0,1-20.14,0,28.22,28.22,0,0,0-23.68.47,14.75,14.75,0,0,1-6.82,1.7c-9.6,0-17.59-9.67-19.25-22.43a18.68,18.68,0,0,0,4.8-5.17c5.63-9.08,14.35-14.9,24.14-14.9s18.4,5.75,24,14.73A18.51,18.51,0,0,0,289,133.68h.25C296.9,133.68,303.52,139.81,306.74,148.75Z"
      transform="translate(-344 39.43)"
      opacity="0.03"
    />
    <path
      id="Path_1005"
      data-name="Path 1005"
      d="M867,331.74l-7.74,4.91,4.7-8.55a7.67,7.67,0,0,0-4.68-1.67h-.13a9.425,9.425,0,0,1-1.6-.11L854.88,328l1.13-2.05a9.3,9.3,0,0,1-4.59-3.48l-4.7,3,3-5.39a13.74,13.74,0,0,0-10.52-5.32c-4.88,0-9.23,2.9-12,7.43a9,9,0,0,1-8,4.29h-.26c-5.39,0-9.76,6.12-9.76,13.65s4.37,13.66,9.76,13.66a7.35,7.35,0,0,0,3.4-.85,14.08,14.08,0,0,1,11.81-.24,12.26,12.26,0,0,0,5,1.09,12.53,12.53,0,0,0,5-1.06,14.11,14.11,0,0,1,11.71.22,7.27,7.27,0,0,0,3.36.84c5.39,0,9.76-6.12,9.76-13.66a17.3,17.3,0,0,0-1.98-8.39Z"
      transform="translate(259.226 94.728)"
      fill="var(--border-color-primary)"
    />
    <path
      id="Path_1006"
      data-name="Path 1006"
      d="M852.37,351.72a14.32,14.32,0,0,0-8.36.91,12.28,12.28,0,0,1-10,0,14.12,14.12,0,0,0-11.81.23,7.33,7.33,0,0,1-3.4.86c-4.79,0-8.77-4.83-9.6-11.19a9.21,9.21,0,0,0,2.39-2.58c2.81-4.53,7.16-7.43,12-7.43s9.18,2.87,12,7.34a9.22,9.22,0,0,0,8,4.37h.12C847.46,344.2,850.77,347.26,852.37,351.72Z"
      transform="translate(253.093 102.627)"
      opacity="0.03"
    />
    <path
      id="Path_1007"
      data-name="Path 1007"
      d="M884.13,204.23l12.43,7.89L889,198.39a12.32,12.32,0,0,1,7.52-2.68h.2a14.65,14.65,0,0,0,2.58-.19l4.22,2.67-1.81-3.28a15.06,15.06,0,0,0,7.37-5.6l7.55,4.78-4.77-8.66c4.41-5.3,10.36-8.54,16.9-8.54,7.85,0,14.83,4.66,19.34,11.93a14.45,14.45,0,0,0,12.79,6.89h.42c8.66,0,15.68,9.82,15.68,21.93s-7,21.93-15.68,21.93a11.81,11.81,0,0,1-5.46-1.37,22.59,22.59,0,0,0-19-.37,19.77,19.77,0,0,1-16.13,0,22.62,22.62,0,0,0-18.81.36,11.86,11.86,0,0,1-5.41,1.34c-8.66,0-15.68-9.82-15.68-21.93a27.89,27.89,0,0,1,3.31-13.37Z"
      transform="translate(370.349 -74.57)"
      fill="var(--border-color-primary)"
    />
    <path
      id="Path_1008"
      data-name="Path 1008"
      d="M907.56,236.32A23.14,23.14,0,0,1,921,237.78a19.77,19.77,0,0,0,16.13,0,22.63,22.63,0,0,1,19,.38,11.8,11.8,0,0,0,5.46,1.36c7.69,0,14.09-7.75,15.43-18a14.56,14.56,0,0,1-3.85-4.15c-4.51-7.26-11.5-11.93-19.34-11.93s-14.75,4.61-19.26,11.8a14.83,14.83,0,0,1-12.78,7h-.2C915.45,224.25,910.14,229.16,907.56,236.32Z"
      transform="translate(370.349 17.008)"
      opacity="0.03"
    />
  </g>
  <path
    id="Path_1016"
    data-name="Path 1016"
    d="M336,108.7l-15.52,9.84,9.42-17.13a15.34,15.34,0,0,0-9.39-3.35h-.25a18.16,18.16,0,0,1-3.22-.24l-5.26,3.33,2.26-4.1a18.62,18.62,0,0,1-9.2-7l-9.42,6,5.95-10.81c-5.51-6.61-12.93-10.66-21.09-10.66-9.79,0-18.51,5.82-24.14,14.89a18,18,0,0,1-16,8.6h-.53c-10.81,0-19.57,12.25-19.57,27.37s8.76,27.37,19.57,27.37a14.73,14.73,0,0,0,6.82-1.71,28.19,28.19,0,0,1,23.68-.46,24.66,24.66,0,0,0,20.14,0,28.25,28.25,0,0,1,23.48.46,14.65,14.65,0,0,0,6.74,1.67c10.81,0,19.57-12.26,19.57-27.37A34.71,34.71,0,0,0,336,108.7Z"
    transform="translate(489.5 314.91)"
    fill="var(--border-color-primary)"
  />
  <path
    id="Path_1017"
    data-name="Path 1017"
    d="M306.74,148.75A28.89,28.89,0,0,0,290,150.57a24.71,24.71,0,0,1-20.14,0,28.22,28.22,0,0,0-23.68.47,14.75,14.75,0,0,1-6.82,1.7c-9.6,0-17.59-9.67-19.25-22.43a18.68,18.68,0,0,0,4.8-5.17c5.63-9.08,14.35-14.9,24.14-14.9s18.4,5.75,24,14.73A18.51,18.51,0,0,0,289,133.68h.25C296.9,133.68,303.52,139.81,306.74,148.75Z"
    transform="translate(489.5 314.91)"
    opacity="0.03"
  />
  <circle
    id="Ellipse_138"
    data-name="Ellipse 138"
    cx="15.27"
    cy="15.27"
    r="15.27"
    transform="translate(1229.16 876.475)"
    fill="var(--foreground-secondary)"
    opacity="0.1"
  />
  <circle
    id="Ellipse_139"
    data-name="Ellipse 139"
    cx="25.6"
    cy="25.6"
    r="25.6"
    transform="translate(1273.461 798.055)"
    fill="var(--foreground-secondary)"
    opacity="0.1"
  />
  <circle
    id="Ellipse_140"
    data-name="Ellipse 140"
    cx="25.6"
    cy="25.6"
    r="25.6"
    transform="translate(1239.58 1006.828)"
    fill="var(--foreground-secondary)"
    opacity="0.1"
  />
  <circle
    id="Ellipse_141"
    data-name="Ellipse 141"
    cx="36.25"
    cy="36.25"
    r="36.25"
    transform="translate(1020.33 978.925)"
    fill="var(--foreground-secondary)"
    opacity="0.1"
  />
  <path
    id="Path_1037"
    data-name="Path 1037"
    d="M584.206,271.143,554.563,239.35,584.3,267.173l.27-11.38L564.2,232.811l20.445,19.973.485-20.465-22.145-18.393L585.2,229.1l1.618-37.358.008-.155v.158l-.255,47.4,24.448-19.188L586.64,243.165l.966,22.88.1-.6L615.9,245.2l-28.224,22.385.122,2.862.047.045-.035.234L589.085,301q-2.767.063-5.59.051l.054-2.356-25.72-23.188L583.6,296.448Z"
    transform="translate(-196.5 548.197)"
    fill="#cbcbcb"
  />
  <path
    id="Path_1038"
    data-name="Path 1038"
    d="M581.79,239.852l-27.227-19.288,27.31,16.879.248-6.9L563.411,216.6l18.779,12.117.445-12.416-20.34-11.159,20.407,9.206,1.486-22.664.008-.094v.1l-.234,28.757L606.418,208.8l-22.392,14.08.887,13.881.092-.367L610.9,224.111l-25.924,13.58.112,1.736.043.027-.032.142,1.174,18.372q-2.542.038-5.134.031l.049-1.429L557.563,242.5l23.673,12.7Z"
    transform="translate(-42.121 900.624)"
    fill="#cbcbcb"
  />
  <path
    id="Path_1039"
    data-name="Path 1039"
    d="M560.882,283.013l-6.318-36.536,6.338,31.974.058-13.078-4.342-26.411,4.358,22.954.1-23.519-4.72-21.138,4.736,17.439.345-42.932,0-.178v.181l-.054,54.474,5.211-22.051-5.2,26.67.206,26.294.021-.7,6.009-23.263-6.016,25.724.026,3.288.01.052-.007.268.272,34.8a8.242,8.242,0,0,1-1.192.059l.011-2.707-5.482-26.648,5.494,24.06Z"
    transform="translate(1040.432 632.068)"
    fill="#cbcbcb"
  />
  <g
    id="undraw_modern_woman_re_d8bx_1_"
    data-name="undraw_modern_woman_re_d8bx (1)"
    transform="translate(1923.016 549.076)"
  >
    <path
      id="Path_1040"
      data-name="Path 1040"
      d="M576.92,325.261c6.8-11.243,14.853-23.247,27.467-26.918C619,294.092,634,302.537,646.732,310.871A1233.93,1233.93,0,0,1,756.544,391.78l-.039.436-81.944-5.651c-19.735-1.361-40.148-2.91-57.588-12.245-6.618-3.543-13.069-8.275-20.568-8.6-9.317-.41-17.441,6.1-23.825,12.9-37.765,40.214-48.693,101.712-91.062,137.043a1344.592,1344.592,0,0,1,95.4-190.393Z"
      transform="translate(-169.935 -149.966)"
      fill="var(--border-color-primary)"
    />
    <path
      id="Path_1041"
      data-name="Path 1041"
      d="M344.785,666.352c4.176-5.273,5.883-6.508,10-11.831q50.313-65.072,94.58-134.541,30.068-47.18,57.154-96.172,12.9-23.292,25.083-46.949,9.458-18.343,18.493-36.906c1.723-3.535,3.4-7.085,5.062-10.644,3.925-8.369,7.776-16.779,11.912-25.034,4.713-9.409,10.449-19.273,19.1-25.6a26.063,26.063,0,0,1,13.577-5.225c7.045-.455,13.545,2.454,19.655,5.631a632.718,632.718,0,0,1,124.416,85.8A647.723,647.723,0,0,1,844.9,477.087c.893,1.276,3.006.057,2.1-1.227q-5.326-7.532-10.864-14.9a651.3,651.3,0,0,0-166.278-155.1q-16.174-10.482-32.957-19.98c-5.639-3.193-11.3-6.346-17.063-9.3-5.647-2.9-11.644-5.509-18.1-5.607-21.955-.341-33.323,24.522-41.131,41.253q-3.681,7.9-7.451,15.747-14.248,29.8-29.593,59.056-9.47,18.063-19.355,35.914-30.762,55.59-65.393,108.929c-30.584,47.1-60.924,88.713-95.766,132.761C342.1,665.848,343.817,667.587,344.785,666.352Z"
      transform="translate(-169.935 -149.966)"
      fill="#e4e4e4"
    />
    <path
      id="Path_1042"
      data-name="Path 1042"
      d="M745.993,352.606c1.276-1.422,2.543-2.844,3.827-4.266,10.124-11.2,20.988-22.264,34.891-28.683a50.619,50.619,0,0,1,21.207-4.916c7.589.024,15.007,2.015,22.02,4.8,3.315,1.324,6.557,2.828,9.75,4.428,3.648,1.836,7.232,3.795,10.8,5.769q10.043,5.558,19.826,11.6,19.465,12.03,37.71,25.9,9.458,7.191,18.526,14.853,8.434,7.118,16.527,14.618c1.154,1.064,2.876-.658,1.723-1.723-1.422-1.324-2.86-2.641-4.3-3.941q-6.094-5.509-12.383-10.807-11.469-9.677-23.531-18.607-18.758-13.894-38.807-25.9-10.019-6-20.314-11.489c-2.072-1.105-4.169-2.186-6.289-3.21a100.261,100.261,0,0,0-14.951-6.086,53.187,53.187,0,0,0-22.581-2.218,58.789,58.789,0,0,0-20.834,7.207c-13.651,7.63-24.238,19.428-34.541,30.942C743.23,352.045,744.945,353.776,745.993,352.606Z"
      transform="translate(-169.935 -149.966)"
      fill="#e4e4e4"
    />
    <path
      id="Path_1043"
      data-name="Path 1043"
      d="M466.3,468.635l-32.71-11.964-16.241-5.94c-5.289-1.935-10.566-4.137-16.034-5.522a25.3,25.3,0,0,0-14.513.185,33.448,33.448,0,0,0-11.319,7.017,91.863,91.863,0,0,0-9.284,9.915c-3.536,4.249-7.02,8.543-10.519,12.823q-21.664,26.494-43.044,53.217T270.16,582.039q-21.145,27.016-42,54.258-2.555,3.337-5.105,6.678c-.939,1.23-3.057.017-2.1-1.23q21.008-27.516,42.31-54.807,21.354-27.356,43-54.48t43.589-54.012q5.466-6.7,10.95-13.383c3.084-3.759,6.133-7.558,9.516-11.057,6.209-6.422,13.967-12.1,23.253-12.251,5.46-.091,10.743,1.642,15.816,3.477,5.468,1.978,10.924,3.994,16.385,5.991l32.939,12.048,8.235,3.012c1.461.534.83,2.891-.648,2.351Z"
      transform="translate(-169.935 -149.966)"
      fill="#e4e4e4"
    />
    <path
      id="Path_1044"
      data-name="Path 1044"
      d="M789.015,333.746c16.623-8.543,37.91-6.87,53.185,3.8a758.577,758.577,0,0,0-86.3,20.143C767.67,350.793,776.879,339.984,789.015,333.746Z"
      transform="translate(-169.935 -149.966)"
      fill="var(--border-color-primary)"
    />
    <path
      id="Path_1045"
      data-name="Path 1045"
      d="M842.364,337.52l3.2,2.6c-1.082-.91-2.208-1.764-3.364-2.572Z"
      transform="translate(-169.935 -149.966)"
      fill="var(--border-color-primary)"
    />
    <path
      id="Path_1046"
      data-name="Path 1046"
      d="M376.712,468.754c3.22-3.919,6.7-8.023,11.517-9.615l4.5.177A510.035,510.035,0,0,1,256.878,614.622Z"
      transform="translate(-169.935 -149.966)"
      fill="var(--border-color-primary)"
    />
    <path
      id="Path_1047"
      data-name="Path 1047"
      d="M982.039,436.521a15.332,15.332,0,0,0-10.89-4.51v-8.97a15.62,15.62,0,0,0-15.63-15.63v-6.76h3.72a6,6,0,1,0,0-12h-3.72v-4.69h-1.84v4.69h-4.44a6,6,0,0,0,0,12h4.44v6.76h-11.46a8.3,8.3,0,0,0-8.3,8.3v16.3h-2.65a31.138,31.138,0,0,0-31.14,31.142v21.782a33.042,33.042,0,0,0-23.045,24.308h-13.65V495.451H855.16v-5.8h5.08a6,6,0,1,0,0-12h-5.08v-3.808h-1.839v3.808h-3.081a6,6,0,0,0,0,12h3.081v5.824a8.3,8.3,0,0,0-7.815,8.278v5.539a31.144,31.144,0,0,0-29.423,31.095V667.85H986.549V447.411a15.332,15.332,0,0,0-4.51-10.89Z"
      transform="translate(-169.935 -149.966)"
      fill="var(--border-color-primary)"
    />
    <path
      id="Path_1048"
      data-name="Path 1048"
      d="M808.231,432.008v-8.965A15.631,15.631,0,0,0,792.6,407.412h0v-8.761h3.64a6,6,0,0,0,0-12H792.6v-2.685h-1.839v2.685h-4.521a6,6,0,0,0,0,12h4.521v8.761H779.295a8.3,8.3,0,0,0-8.3,8.3v16.293h-2.646A31.144,31.144,0,0,0,737.2,463.152v20.179a33.026,33.026,0,0,0-19.661,25.912H700.512V495.451h-8.275v-7.8h3a6,6,0,1,0,0-12h-3v-1.808H690.4v1.808h-5.159a6,6,0,0,0,0,12H690.4v7.824a8.3,8.3,0,0,0-7.815,8.278v5.539a31.144,31.144,0,0,0-29.423,31.095V667.85H823.632V447.409A15.4,15.4,0,0,0,808.231,432.008Z"
      transform="translate(-169.935 -149.966)"
      fill="var(--border-color-primary)"
    />
    <path
      id="Path_1049"
      data-name="Path 1049"
      d="M595.35,668.534a1.955,1.955,0,0,1-.172.842c-.11.223-.26.348-.417.348l-293.141.21-1.029.01-60.5.04h-1l-51.5.04h-1l-16.074.01c-.325,0-.589-.533-.589-1.19s.264-1.19.589-1.19l16.242-.01h1l51.482-.04h1l60.029-.04H301.3l51.151-.04h.673l241.639-.18c.156,0,.306.124.417.347A1.955,1.955,0,0,1,595.35,668.534Z"
      transform="translate(264.78 -149.966)"
      fill="#cacaca"
    />
    <rect
      id="Rectangle_491"
      data-name="Rectangle 491"
      width="11.493"
      height="9.195"
      transform="translate(536.554 414.445) rotate(180)"
      fill="#fff"
    />
    <rect
      id="Rectangle_492"
      data-name="Rectangle 492"
      width="11.493"
      height="9.195"
      transform="translate(517.705 414.445) rotate(180)"
      fill="#fff"
    />
    <rect
      id="Rectangle_493"
      data-name="Rectangle 493"
      width="11.493"
      height="9.195"
      transform="translate(536.554 437.891) rotate(180)"
      fill="#fff"
    />
    <rect
      id="Rectangle_494"
      data-name="Rectangle 494"
      width="11.493"
      height="9.195"
      transform="translate(517.705 437.891) rotate(180)"
      fill="#fff"
    />
    <rect
      id="Rectangle_495"
      data-name="Rectangle 495"
      width="11.493"
      height="9.195"
      transform="translate(536.554 461.337) rotate(180)"
      fill="#fff"
    />
    <rect
      id="Rectangle_496"
      data-name="Rectangle 496"
      width="11.493"
      height="9.195"
      transform="translate(517.705 461.337) rotate(180)"
      fill="#fff"
    />
    <rect
      id="Rectangle_497"
      data-name="Rectangle 497"
      width="11.493"
      height="9.195"
      transform="translate(517.705 484.784) rotate(180)"
      fill="#fff"
    />
    <rect
      id="Rectangle_498"
      data-name="Rectangle 498"
      width="11.493"
      height="9.195"
      transform="translate(517.705 508.23) rotate(180)"
      fill="#fff"
    />
    <rect
      id="Rectangle_499"
      data-name="Rectangle 499"
      width="37.238"
      height="2.758"
      transform="translate(629.101 388.47) rotate(180)"
      fill="#fff"
    />
    <rect
      id="Rectangle_500"
      data-name="Rectangle 500"
      width="37.238"
      height="2.758"
      transform="translate(629.101 405.48) rotate(180)"
      fill="#fff"
    />
    <rect
      id="Rectangle_501"
      data-name="Rectangle 501"
      width="37.238"
      height="2.758"
      transform="translate(629.101 422.49) rotate(180)"
      fill="#fff"
    />
    <rect
      id="Rectangle_502"
      data-name="Rectangle 502"
      width="11.493"
      height="9.195"
      transform="translate(625.423 271.698) rotate(180)"
      fill="#fff"
    />
    <rect
      id="Rectangle_503"
      data-name="Rectangle 503"
      width="11.493"
      height="9.195"
      transform="translate(699.476 437.891) rotate(180)"
      fill="#fff"
    />
    <rect
      id="Rectangle_504"
      data-name="Rectangle 504"
      width="11.493"
      height="9.195"
      transform="translate(680.627 437.891) rotate(180)"
      fill="#fff"
    />
    <rect
      id="Rectangle_505"
      data-name="Rectangle 505"
      width="11.493"
      height="9.195"
      transform="translate(699.476 461.337) rotate(180)"
      fill="#fff"
    />
    <rect
      id="Rectangle_506"
      data-name="Rectangle 506"
      width="11.493"
      height="9.195"
      transform="translate(680.627 461.337) rotate(180)"
      fill="#fff"
    />
    <rect
      id="Rectangle_507"
      data-name="Rectangle 507"
      width="11.493"
      height="9.195"
      transform="translate(699.476 484.784) rotate(180)"
      fill="#fff"
    />
    <rect
      id="Rectangle_508"
      data-name="Rectangle 508"
      width="11.493"
      height="9.195"
      transform="translate(680.627 484.784) rotate(180)"
      fill="#fff"
    />
    <rect
      id="Rectangle_509"
      data-name="Rectangle 509"
      width="11.493"
      height="9.195"
      transform="translate(699.476 508.23) rotate(180)"
      fill="#fff"
    />
    <rect
      id="Rectangle_510"
      data-name="Rectangle 510"
      width="11.493"
      height="9.195"
      transform="translate(680.627 508.23) rotate(180)"
      fill="#fff"
    />
    <rect
      id="Rectangle_511"
      data-name="Rectangle 511"
      width="11.493"
      height="9.195"
      transform="translate(788.346 271.698) rotate(180)"
      fill="#fff"
    />
    <circle
      id="Ellipse_142"
      data-name="Ellipse 142"
      cx="26.701"
      cy="26.701"
      r="26.701"
      transform="translate(559.376 80.291)"
      fill="#fd6584"
    />
    <path
      id="Path_1051"
      data-name="Path 1051"
      d="M815.774,244.316a13.248,13.248,0,0,0-11.179-9.291c-.058-.008-.113,0-.171,0a1.666,1.666,0,0,0-.228-.052c-12.211-1.578-26.306,4.262-31.395,15.838a12.935,12.935,0,0,0-10.833-5.279,13.193,13.193,0,0,0-11.8,9.511,1.548,1.548,0,0,0,.689,1.694,6.766,6.766,0,0,0,2.79,1.416q3.326.7,6.676,1.291,6.537,1.144,13.142,1.85a195.426,195.426,0,0,0,26.918,1.017c2.993-.093,5.879-.193,8.621-1.513a12.827,12.827,0,0,0,4.945-4.316,14.552,14.552,0,0,0,1.825-12.165Z"
      transform="translate(-169.935 -149.966)"
      fill="#f0f0f0"
    />
    <path
      id="Path_1052"
      data-name="Path 1052"
      d="M760.278,279.917a13.248,13.248,0,0,0-11.179-9.291c-.058-.008-.113,0-.171,0a1.661,1.661,0,0,0-.228-.052c-12.211-1.578-26.306,4.262-31.395,15.838a12.934,12.934,0,0,0-10.833-5.279,13.193,13.193,0,0,0-11.8,9.511,1.548,1.548,0,0,0,.69,1.694,6.766,6.766,0,0,0,2.79,1.416q3.326.7,6.676,1.291,6.537,1.144,13.142,1.85a195.426,195.426,0,0,0,26.918,1.017c2.993-.093,5.879-.193,8.621-1.513a12.828,12.828,0,0,0,4.945-4.315,14.552,14.552,0,0,0,1.825-12.165Z"
      transform="translate(-169.935 -149.966)"
      fill="#f0f0f0"
    />
    <rect
      id="Rectangle_512"
      data-name="Rectangle 512"
      width="28.31"
      height="6"
      transform="translate(788.304 301.685)"
      fill="#fff"
    />
    <rect
      id="Rectangle_513"
      data-name="Rectangle 513"
      width="28.31"
      height="6"
      transform="translate(788.304 319.685)"
      fill="#fff"
    />
    <rect
      id="Rectangle_514"
      data-name="Rectangle 514"
      width="28.31"
      height="6"
      transform="translate(788.304 337.685)"
      fill="#fff"
    />
    <rect
      id="Rectangle_515"
      data-name="Rectangle 515"
      width="28.31"
      height="6"
      transform="translate(788.304 355.685)"
      fill="#fff"
    />
    <rect
      id="Rectangle_516"
      data-name="Rectangle 516"
      width="28.31"
      height="6"
      transform="translate(788.304 373.685)"
      fill="#fff"
    />
    <rect
      id="Rectangle_517"
      data-name="Rectangle 517"
      width="28.31"
      height="6"
      transform="translate(788.304 391.685)"
      fill="#fff"
    />
  </g>
</svg>
