<svg
  id="undraw_thought_process_re_om58"
  xmlns="http://www.w3.org/2000/svg"
  width="678.903"
  height="438.292"
  viewBox="0 0 678.903 438.292"
>
  <circle
    id="Ellipse_42"
    data-name="Ellipse 42"
    cx="169"
    cy="169"
    r="169"
    transform="translate(77.148 17.839)"
    fill="var(--border-color-primary)"
  />
  <circle
    id="Ellipse_43"
    data-name="Ellipse 43"
    cx="32"
    cy="32"
    r="32"
    transform="translate(410.148 286.839)"
    fill="var(--border-color-primary)"
  />
  <path
    id="Path_698"
    data-name="Path 698"
    d="M528.991,560.913c-80.774,0-151.053-60.252-161.435-142.437l1.984-.251c10.254,81.171,79.677,140.684,159.452,140.689a161.345,161.345,0,0,0,20.268-1.279c87.991-11.116,150.529-91.74,139.414-179.726l1.984-.251c11.253,89.08-52.063,170.708-141.143,181.96A163.741,163.741,0,0,1,528.991,560.913Z"
    transform="translate(-147.744 -156.069)"
    fill="#3f3d56"
  />
  <path
    id="Path_699"
    data-name="Path 699"
    d="M533.329,594.362h-31.8a4.5,4.5,0,0,1-3.535-1.7,4.408,4.408,0,0,1-.863-3.746,86.516,86.516,0,0,0-.52-40.4,4.477,4.477,0,0,1,1.951-4.873c11-6.816,22.983-6.6,36.628.652a4.551,4.551,0,0,1,2.368,3.275,141.562,141.562,0,0,1,.234,42.924,4.491,4.491,0,0,1-4.46,3.872Z"
    transform="translate(-147.744 -156.069)"
    fill="var(--foreground-secondary)"
  />
  <path
    id="Path_700"
    data-name="Path 700"
    d="M388.329,424.362h-31.8a4.5,4.5,0,0,1-3.535-1.7,4.408,4.408,0,0,1-.863-3.746,86.49,86.49,0,0,0-.555-40.536,4.509,4.509,0,0,1,1.749-4.738c16.354-11.762,29.232-11.42,38.279,1.016a4.519,4.519,0,0,1,.791,1.91,141.54,141.54,0,0,1,.4,43.925,4.491,4.491,0,0,1-4.461,3.872Z"
    transform="translate(-147.744 -156.069)"
    fill="#ccc"
  />
  <path
    id="Path_701"
    data-name="Path 701"
    d="M518.469,564.513H507.528a2.281,2.281,0,1,1,0-4.562h10.941a2.281,2.281,0,0,1,0,4.562Z"
    transform="translate(-147.744 -156.069)"
    fill="#fff"
  />
  <path
    id="Path_702"
    data-name="Path 702"
    d="M531.846,573.526H507.528a2.281,2.281,0,1,1,0-4.562h24.318a2.281,2.281,0,0,1,0,4.562Z"
    transform="translate(-147.744 -156.069)"
    fill="#fff"
  />
  <path
    id="Path_703"
    data-name="Path 703"
    d="M378.469,392.513H367.528a2.281,2.281,0,0,1,0-4.562h10.941a2.281,2.281,0,1,1,0,4.562Z"
    transform="translate(-147.744 -156.069)"
    fill="#fff"
  />
  <path
    id="Path_704"
    data-name="Path 704"
    d="M378.469,400.513H367.528a2.281,2.281,0,1,1,0-4.562h10.941a2.281,2.281,0,1,1,0,4.562Z"
    transform="translate(-147.744 -156.069)"
    fill="#fff"
  />
  <path
    id="Path_705"
    data-name="Path 705"
    d="M378.469,408.513H367.528a2.281,2.281,0,0,1,0-4.562h10.941a2.281,2.281,0,1,1,0,4.562Z"
    transform="translate(-147.744 -156.069)"
    fill="#fff"
  />
  <path
    id="Path_706"
    data-name="Path 706"
    d="M816.37,461.935H714.705a10.288,10.288,0,0,1-10.277-10.277V389.042a10.288,10.288,0,0,1,10.277-10.277H816.37a10.288,10.288,0,0,1,10.277,10.277v62.616a10.288,10.288,0,0,1-10.277,10.277Z"
    transform="translate(-147.744 -156.069)"
    fill="#e6e6e6"
  />
  <path
    id="Path_707"
    data-name="Path 707"
    d="M775.977,453.869H721.852a9.636,9.636,0,0,1-9.625-9.625v-47.79a9.636,9.636,0,0,1,9.625-9.625h87.373a9.635,9.635,0,0,1,9.624,9.625V411A42.92,42.92,0,0,1,775.977,453.869Z"
    transform="translate(-147.744 -156.069)"
    fill="#fff"
  />
  <path
    id="Path_708"
    data-name="Path 708"
    d="M800.508,413H730.568a2.281,2.281,0,1,1,0-4.562h69.941a2.281,2.281,0,0,1,0,4.562Z"
    transform="translate(-147.744 -156.069)"
    fill="var(--foreground-secondary)"
  />
  <path
    id="Path_709"
    data-name="Path 709"
    d="M741.508,422.012H730.568a2.281,2.281,0,1,1,0-4.562h10.94a2.281,2.281,0,1,1,0,4.562Z"
    transform="translate(-147.744 -156.069)"
    fill="var(--foreground-secondary)"
  />
  <path
    id="Path_710"
    data-name="Path 710"
    d="M760.885,431.026H730.568a2.281,2.281,0,1,1,0-4.562h30.318a2.281,2.281,0,1,1,0,4.562Z"
    transform="translate(-147.744 -156.069)"
    fill="var(--foreground-secondary)"
  />
  <circle
    id="Ellipse_46"
    data-name="Ellipse 46"
    cx="21.506"
    cy="21.506"
    r="21.506"
    transform="translate(531.631 199.942)"
    fill="#3f3d56"
  />
  <path
    id="Path_711"
    data-name="Path 711"
    d="M457.431,213.919A56.086,56.086,0,1,1,567.487,235.6l-1.963-.387a54.085,54.085,0,0,0-106.131-20.91Z"
    transform="translate(-147.744 -156.069)"
    fill="#3f3d56"
  />
  <path
    id="Path_712"
    data-name="Path 712"
    d="M478.728,249.3l-31.776,1.316a4.5,4.5,0,0,1-3.6-1.555,4.408,4.408,0,0,1-1.017-3.707,86.536,86.536,0,0,0-2.075-39.953,4.471,4.471,0,0,1,2.208-5.227c13.016-6.762,25.211-7.105,36.246-1.02a4.527,4.527,0,0,1,2.272,3.06,141.553,141.553,0,0,1,2.042,43.032,4.491,4.491,0,0,1-4.3,4.053Z"
    transform="translate(-147.744 -156.069)"
    fill="var(--foreground-secondary)"
  />
  <path
    id="Path_713"
    data-name="Path 713"
    d="M477.384,228.506l-24.3,1.006a2.281,2.281,0,1,1-.189-4.558l24.3-1.006a2.281,2.281,0,1,1,.189,4.558Z"
    transform="translate(-147.744 -156.069)"
    fill="#fff"
  />
  <path
    id="Path_714"
    data-name="Path 714"
    d="M477.053,220.513l-24.3,1.006a2.281,2.281,0,0,1-.189-4.558l24.3-1.006a2.281,2.281,0,0,1,.189,4.558Z"
    transform="translate(-147.744 -156.069)"
    fill="#fff"
  />
  <path
    id="Path_715"
    data-name="Path 715"
    d="M686.686,239.239H585.021a10.288,10.288,0,0,1-10.277-10.277V166.346a10.288,10.288,0,0,1,10.277-10.277H686.686a10.288,10.288,0,0,1,10.277,10.277v62.616A10.288,10.288,0,0,1,686.686,239.239Z"
    transform="translate(-147.744 -156.069)"
    fill="#e6e6e6"
  />
  <path
    id="Path_716"
    data-name="Path 716"
    d="M646.293,231.174H592.167a9.636,9.636,0,0,1-9.625-9.625v-47.79a9.636,9.636,0,0,1,9.625-9.624H679.54a9.635,9.635,0,0,1,9.625,9.624V188.3a42.92,42.92,0,0,1-42.872,42.871Z"
    transform="translate(-147.744 -156.069)"
    fill="#fff"
  />
  <path
    id="Path_717"
    data-name="Path 717"
    d="M670.824,190.3h-69.94a2.281,2.281,0,0,1,0-4.562h69.94a2.281,2.281,0,1,1,0,4.562Z"
    transform="translate(-147.744 -156.069)"
    fill="var(--foreground-secondary)"
  />
  <path
    id="Path_718"
    data-name="Path 718"
    d="M611.824,199.317h-10.94a2.281,2.281,0,1,1,0-4.562h10.94a2.281,2.281,0,1,1,0,4.562Z"
    transform="translate(-147.744 -156.069)"
    fill="var(--foreground-secondary)"
  />
  <path
    id="Path_719"
    data-name="Path 719"
    d="M631.2,208.33H600.883a2.281,2.281,0,0,1,0-4.562H631.2a2.281,2.281,0,1,1,0,4.562Z"
    transform="translate(-147.744 -156.069)"
    fill="var(--foreground-secondary)"
  />
  <circle
    id="Ellipse_47"
    data-name="Ellipse 47"
    cx="21.506"
    cy="21.506"
    r="21.506"
    transform="translate(391.2 89.565) rotate(-58.134)"
    fill="#3f3d56"
  />
  <path
    id="Path_721"
    data-name="Path 721"
    d="M282.072,406.5a94.031,94.031,0,0,1,175.9-66.538l-1.871.708a92.031,92.031,0,0,0-172.156,65.122Z"
    transform="translate(-147.744 -156.069)"
    fill="#3f3d56"
  />
  <path
    id="Path_722"
    data-name="Path 722"
    d="M364.329,313.362h-31.8a4.5,4.5,0,0,1-3.535-1.7,4.408,4.408,0,0,1-.863-3.746,86.514,86.514,0,0,0-.5-40.309,4.462,4.462,0,0,1,2.058-4.937c11.52-6.706,23.823-6.5,36.565.61a4.512,4.512,0,0,1,2.293,3.234,141.563,141.563,0,0,1,.243,42.979,4.491,4.491,0,0,1-4.461,3.872Z"
    transform="translate(-147.744 -156.069)"
    fill="var(--foreground-secondary)"
  />
  <path
    id="Path_723"
    data-name="Path 723"
    d="M349.469,282.513H338.528a2.281,2.281,0,0,1,0-4.562h10.94a2.281,2.281,0,1,1,0,4.562Z"
    transform="translate(-147.744 -156.069)"
    fill="#fff"
  />
  <path
    id="Path_724"
    data-name="Path 724"
    d="M362.846,291.526H338.528a2.281,2.281,0,1,1,0-4.562h24.318a2.281,2.281,0,1,1,0,4.562Z"
    transform="translate(-147.744 -156.069)"
    fill="#fff"
  />
  <path
    id="Path_725"
    data-name="Path 725"
    d="M259.686,405.239H158.021a10.288,10.288,0,0,1-10.277-10.277V332.346a10.288,10.288,0,0,1,10.277-10.277H259.686a10.288,10.288,0,0,1,10.277,10.277v62.616A10.288,10.288,0,0,1,259.686,405.239Z"
    transform="translate(-147.744 -156.069)"
    fill="#e6e6e6"
  />
  <path
    id="Path_726"
    data-name="Path 726"
    d="M219.293,397.174H165.167a9.636,9.636,0,0,1-9.625-9.625v-47.79a9.636,9.636,0,0,1,9.625-9.625H252.54a9.635,9.635,0,0,1,9.625,9.625V354.3A42.92,42.92,0,0,1,219.293,397.174Z"
    transform="translate(-147.744 -156.069)"
    fill="#fff"
  />
  <path
    id="Path_727"
    data-name="Path 727"
    d="M243.824,356.3H173.883a2.281,2.281,0,1,1,0-4.562h69.941a2.281,2.281,0,1,1,0,4.562Z"
    transform="translate(-147.744 -156.069)"
    fill="var(--foreground-secondary)"
  />
  <path
    id="Path_728"
    data-name="Path 728"
    d="M184.824,365.317H173.883a2.281,2.281,0,1,1,0-4.562h10.941a2.281,2.281,0,1,1,0,4.562Z"
    transform="translate(-147.744 -156.069)"
    fill="var(--foreground-secondary)"
  />
  <path
    id="Path_729"
    data-name="Path 729"
    d="M204.2,374.33H173.883a2.281,2.281,0,1,1,0-4.562H204.2a2.281,2.281,0,1,1,0,4.562Z"
    transform="translate(-147.744 -156.069)"
    fill="var(--foreground-secondary)"
  />
  <circle
    id="Ellipse_48"
    data-name="Ellipse 48"
    cx="21.506"
    cy="21.506"
    r="21.506"
    transform="translate(104.2 253.566) rotate(-58.134)"
    fill="#3f3d56"
  />
  <path
    id="Path_730"
    data-name="Path 730"
    d="M473.329,373.362h-31.8a4.5,4.5,0,0,1-3.535-1.7,4.408,4.408,0,0,1-.863-3.746,86.521,86.521,0,0,0-.479-40.24,4.489,4.489,0,0,1,2.124-4.978c15.45-8.844,27.683-8.6,37.4.747a4.441,4.441,0,0,1,1.279,2.476,141.556,141.556,0,0,1,.338,43.572,4.491,4.491,0,0,1-4.46,3.872Z"
    transform="translate(-147.744 -156.069)"
    fill="#ff6584"
  />
  <path
    id="Path_731"
    data-name="Path 731"
    d="M460.469,343.513H449.528a2.281,2.281,0,0,1,0-4.562h10.94a2.281,2.281,0,0,1,0,4.562Z"
    transform="translate(-147.744 -156.069)"
    fill="#fff"
  />
  <path
    id="Path_732"
    data-name="Path 732"
    d="M473.846,352.526H449.528a2.281,2.281,0,0,1,0-4.562h24.318a2.281,2.281,0,0,1,0,4.562Z"
    transform="translate(-147.744 -156.069)"
    fill="#fff"
  />
</svg>
