<svg
  xmlns="http://www.w3.org/2000/svg"
  width="783.984"
  height="429.348"
  viewBox="0 0 783.984 429.348"
>
  <g id="undraw_add_information_j2wg" transform="translate(-113.334)">
    <path
      id="Path_5"
      data-name="Path 5"
      d="M948.262,208.065H315.939a1.015,1.015,0,1,1,0-2.031H948.262a1.015,1.015,0,1,1,0,2.031Z"
      transform="translate(-151.341 -171.512)"
      fill="#cacaca"
    />
    <ellipse
      id="Ellipse_2"
      data-name="Ellipse 2"
      cx="10.925"
      cy="11.169"
      rx="10.925"
      ry="11.169"
      transform="translate(176.028 0)"
      fill="#3f3d56"
    />
    <ellipse
      id="Ellipse_3"
      data-name="Ellipse 3"
      cx="10.925"
      cy="11.169"
      rx="10.925"
      ry="11.169"
      transform="translate(213.77 0)"
      fill="#3f3d56"
    />
    <ellipse
      id="Ellipse_4"
      data-name="Ellipse 4"
      cx="10.925"
      cy="11.169"
      rx="10.925"
      ry="11.169"
      transform="translate(251.512 0)"
      fill="#3f3d56"
    />
    <path
      id="Path_6"
      data-name="Path 6"
      d="M925.645,174.281h-26.81a2.03,2.03,0,1,0,0,4.06h26.81a2.03,2.03,0,1,0,0-4.06Z"
      transform="translate(-151.341 -171.512)"
      fill="#3f3d56"
    />
    <path
      id="Path_7"
      data-name="Path 7"
      d="M925.645,181.9h-26.81a2.03,2.03,0,1,0,0,4.06h26.81a2.03,2.03,0,1,0,0-4.06Z"
      transform="translate(-151.341 -171.512)"
      fill="#3f3d56"
    />
    <path
      id="Path_8"
      data-name="Path 8"
      d="M925.645,189.511h-26.81a2.03,2.03,0,1,0,0,4.06h26.81a2.03,2.03,0,1,0,0-4.06Z"
      transform="translate(-151.341 -171.512)"
      fill="#3f3d56"
    />
    <path
      id="Path_9"
      data-name="Path 9"
      d="M808.054,287.654H374.044a8.07,8.07,0,0,0-8.07,8.06v204.87a8.079,8.079,0,0,0,8.07,8.07h434.01a8.077,8.077,0,0,0,8.06-8.07V295.714a8.068,8.068,0,0,0-8.06-8.06Z"
      transform="translate(-151.341 -171.512)"
      fill="#3f3d56"
    />
    <path
      id="Path_10"
      data-name="Path 10"
      d="M693.414,386.354a8.068,8.068,0,0,0-8.06,8.06v57.87a8.077,8.077,0,0,0,8.06,8.07h122.7v-74Z"
      transform="translate(-151.341 -171.512)"
      fill="#3f3d56"
    />
    <path
      id="Path_11"
      data-name="Path 11"
      d="M1022.429,460.35H693.418a8.076,8.076,0,0,1-8.066-8.066V394.416a8.075,8.075,0,0,1,8.066-8.066h329.01a8.075,8.075,0,0,1,8.066,8.066v57.868a8.076,8.076,0,0,1-8.066,8.066Z"
      transform="translate(-151.341 -171.512)"
      fill="#3f3d56"
      opacity="0.5"
    />
    <circle
      id="Ellipse_5"
      data-name="Ellipse 5"
      cx="13.089"
      cy="13.089"
      r="13.089"
      transform="translate(573.482 242.447)"
      fill="#fff"
    />
    <path
      id="Path_12"
      data-name="Path 12"
      d="M1012.235,423.246H775.72a3.9,3.9,0,0,1,0-7.8h236.514a3.9,3.9,0,0,1,0,7.8Z"
      transform="translate(-151.341 -171.512)"
      fill="#fff"
    />
    <path
      id="Path_13"
      data-name="Path 13"
      d="M922.4,438.648H775.72a3.9,3.9,0,0,1,0-7.8H922.4a3.9,3.9,0,1,1,0,7.8Z"
      transform="translate(-151.341 -171.512)"
      fill="#fff"
    />
    <path
      id="Path_19"
      data-name="Path 19"
      d="M1021.021,409.86a27.638,27.638,0,1,1,27.638-27.638,27.638,27.638,0,0,1-27.638,27.638Z"
      transform="translate(-151.341 -171.512)"
      fill="#3f3d56"
    />
    <path
      id="Path_20"
      data-name="Path 20"
      d="M1031.926,379.5h-8.179v-8.179a2.726,2.726,0,0,0-5.453,0V379.5h-8.179a2.726,2.726,0,1,0,0,5.453h8.179v8.179a2.726,2.726,0,0,0,5.453,0v-8.179h8.179a2.726,2.726,0,1,0,0-5.453Z"
      transform="translate(-151.341 -171.512)"
      fill="#fff"
    />
    <path
      id="Path_21"
      data-name="Path 21"
      d="M599.224,460.724H494.214a8.079,8.079,0,0,0-8.07,8.07v39.86h121.14v-39.86a8.077,8.077,0,0,0-8.06-8.07Z"
      transform="translate(-151.341 -171.512)"
      fill="#3f3d56"
    />
    <path
      id="Path_22"
      data-name="Path 22"
      d="M599.221,572.724H494.21a8.076,8.076,0,0,1-8.066-8.066V468.79a8.075,8.075,0,0,1,8.066-8.066h105.01a8.075,8.075,0,0,1,8.066,8.066v95.868a8.076,8.076,0,0,1-8.066,8.066Z"
      transform="translate(-151.341 -171.512)"
      fill="#3f3d56"
      opacity="0.5"
    />
    <circle
      id="Ellipse_6"
      data-name="Ellipse 6"
      cx="13.089"
      cy="13.089"
      r="13.089"
      transform="translate(360.719 308.473)"
      fill="#fff"
    />
    <path
      id="Path_23"
      data-name="Path 23"
      d="M577.472,526.06H515.958a3.9,3.9,0,0,1,0-7.8h61.514a3.9,3.9,0,1,1,0,7.8Z"
      transform="translate(-151.341 -171.512)"
      fill="#fff"
    />
    <path
      id="Path_24"
      data-name="Path 24"
      d="M545.641,541.462H515.958a3.9,3.9,0,0,1,0-7.8h29.684a3.9,3.9,0,0,1,0,7.8Z"
      transform="translate(-151.341 -171.512)"
      fill="#fff"
    />
    <path
      id="Path_25"
      data-name="Path 25"
      d="M492.021,600.86a27.638,27.638,0,1,1,27.638-27.638,27.638,27.638,0,0,1-27.638,27.638Z"
      transform="translate(-151.341 -171.512)"
      fill="#3f3d56"
    />
    <path
      id="Path_26"
      data-name="Path 26"
      d="M502.926,570.5h-8.179v-8.179a2.726,2.726,0,1,0-5.453,0V570.5h-8.179a2.726,2.726,0,0,0,0,5.453h8.179v8.179a2.726,2.726,0,0,0,5.453,0v-8.179h8.179a2.726,2.726,0,1,0,0-5.453Z"
      transform="translate(-151.341 -171.512)"
      fill="#fff"
    />
    <path
      id="Path_27"
      data-name="Path 27"
      d="M479.228,399.779H374.218a8.076,8.076,0,0,1-8.066-8.066V295.845a8.075,8.075,0,0,1,8.066-8.066h105.01a8.075,8.075,0,0,1,8.066,8.066v95.868A8.076,8.076,0,0,1,479.228,399.779Z"
      transform="translate(-151.341 -171.512)"
      fill="#3f3d56"
    />
    <circle
      id="Ellipse_7"
      data-name="Ellipse 7"
      cx="13.089"
      cy="13.089"
      r="13.089"
      transform="translate(240.727 143.529)"
      fill="#3f3d56"
    />
    <path
      id="Path_28"
      data-name="Path 28"
      d="M457.48,357.115H395.966a3.9,3.9,0,1,1,0-7.8H457.48a3.9,3.9,0,1,1,0,7.8Z"
      transform="translate(-151.341 -171.512)"
      fill="#3f3d56"
    />
    <path
      id="Path_29"
      data-name="Path 29"
      d="M425.649,372.517H395.966a3.9,3.9,0,1,1,0-7.8h29.684a3.9,3.9,0,1,1,0,7.8Z"
      transform="translate(-151.341 -171.512)"
      fill="#3f3d56"
    />
    <path
      id="Path_30"
      data-name="Path 30"
      d="M479.228,399.779H374.218a8.076,8.076,0,0,1-8.066-8.066V295.845a8.075,8.075,0,0,1,8.066-8.066h105.01a8.075,8.075,0,0,1,8.066,8.066v95.868A8.076,8.076,0,0,1,479.228,399.779Z"
      transform="translate(-151.341 -171.512)"
      fill="#3f3d56"
      opacity="0.5"
    />
    <circle
      id="Ellipse_8"
      data-name="Ellipse 8"
      cx="13.089"
      cy="13.089"
      r="13.089"
      transform="translate(240.727 143.529)"
      fill="#fff"
    />
    <path
      id="Path_31"
      data-name="Path 31"
      d="M457.48,357.115H395.966a3.9,3.9,0,1,1,0-7.8H457.48a3.9,3.9,0,1,1,0,7.8Z"
      transform="translate(-151.341 -171.512)"
      fill="#fff"
    />
    <path
      id="Path_32"
      data-name="Path 32"
      d="M425.649,372.517H395.966a3.9,3.9,0,1,1,0-7.8h29.684a3.9,3.9,0,1,1,0,7.8Z"
      transform="translate(-151.341 -171.512)"
      fill="#fff"
    />
    <circle
      id="Ellipse_9"
      data-name="Ellipse 9"
      cx="21"
      cy="21"
      r="21"
      transform="translate(204.043 94.951)"
      fill="#ff6584"
    />
    <path
      id="Path_37"
      data-name="Path 37"
      d="M264.953,391.178q-.139-.307-.278-.616c.036,0,.071.006.106.007Z"
      transform="translate(-151.341 -171.512)"
      fill="#2f2e41"
    />
  </g>
</svg>
