<svg
  xmlns="http://www.w3.org/2000/svg"
  width="84.012"
  height="84.012"
  viewBox="0 0 84.012 84.012"
>
  <path
    id="Path_47"
    data-name="Path 47"
    d="M836.116,264.515a42,42,0,1,1,35.148-47.881,42,42,0,0,1-35.148,47.881Zm-12.43-81.052a40,40,0,1,0,45.6,33.474,40,40,0,0,0-45.6-33.474Z"
    transform="translate(-787.744 -180.994)"
    fill="#3f3d56"
  />
  <path
    id="Path_54"
    data-name="Path 54"
    d="M851.339,202.963l-36.667-5.4a3.622,3.622,0,0,0-4.255,2.853l0,.016L805,237.177a3.907,3.907,0,0,0,3.2,4.318l36.656,5.4a3.709,3.709,0,0,0,4.079-3.246l5.415-36.749a3.4,3.4,0,0,0-2.807-3.912Q851.441,202.973,851.339,202.963Zm-32.2,32.673-6.294-.927,2.884-19.57,6.294.927Zm.393-22.977-.045-.007a3.459,3.459,0,1,1,.045.007Zm22.61,26.366-6.294-.927,1.577-10.7c.378-2.564-.28-4.45-2.557-4.786a3.479,3.479,0,0,0-3.57,1.848,4.285,4.285,0,0,0-.445,1.514l-1.642,11.147-6.294-.927,2.884-19.57,6.294.927-.4,2.723a6.442,6.442,0,0,1,6.145-2.345c4.132.609,6.856,3.793,5.991,9.664Z"
    transform="matrix(0.985, -0.174, 0.174, 0.985, -813.657, -32.75)"
    fill="#2668b2"
  />
</svg>
