<svg
  xmlns="http://www.w3.org/2000/svg"
  width="728.252"
  height="500"
  viewBox="0 0 728.252 500"
>
  <g id="undraw_real_time_sync_re_nky7" transform="translate(0 -0.004)">
    <path
      id="Path_596"
      data-name="Path 596"
      d="M828.549,210.725c4.653-18.979.229-41.112-14.8-53.6a90.032,90.032,0,0,1-22.02,57.757c-5.393,6.171-12.034,12.472-12.3,20.663-.163,5.1,2.325,9.992,5.754,13.767s7.754,6.6,12.027,9.381l.628,1.107C811.595,245.929,823.9,229.7,828.549,210.725Z"
      transform="translate(-235.874 -150.529)"
      fill="#f0f0f0"
    />
    <path
      id="Path_597"
      data-name="Path 597"
      d="M813.443,157.407a76.953,76.953,0,0,1,2.45,47.282,33.139,33.139,0,0,1-4.048,9.561,19.006,19.006,0,0,1-7.557,6.554c-2.825,1.429-5.879,2.563-8.308,4.653a11.638,11.638,0,0,0-3.915,8.675c-.117,4.087,1.241,7.972,2.7,11.725,1.621,4.167,3.371,8.47,3,13.032-.045.553.815.591.86.039.652-7.938-4.739-14.643-5.594-22.342-.4-3.593.282-7.327,2.939-9.947,2.323-2.291,5.472-3.463,8.344-4.884a20.281,20.281,0,0,0,7.628-6.133,30.637,30.637,0,0,0,4.4-9.37,74.659,74.659,0,0,0,2.986-23.142,78.318,78.318,0,0,0-5.121-26.1c-.2-.516-.958-.112-.763.4Z"
      transform="translate(-235.874 -150.529)"
      fill="#fff"
    />
    <path
      id="Path_598"
      data-name="Path 598"
      d="M817.533,199.737a11.545,11.545,0,0,0,12.52-8.171c.156-.532-.663-.8-.819-.266a10.691,10.691,0,0,1-11.661,7.577c-.549-.072-.585.788-.039.86Z"
      transform="translate(-235.874 -150.529)"
      fill="#fff"
    />
    <path
      id="Path_599"
      data-name="Path 599"
      d="M805.816,220.269a22.253,22.253,0,0,1-4.721-15.515c.043-.553-.817-.591-.86-.039a23.147,23.147,0,0,0,4.945,16.135C805.525,221.284,806.159,220.7,805.816,220.269Z"
      transform="translate(-235.874 -150.529)"
      fill="#fff"
    />
    <path
      id="Path_600"
      data-name="Path 600"
      d="M818.083,174.658a6.535,6.535,0,0,1-5.675-2.5c-.34-.439-.973.145-.636.581a7.323,7.323,0,0,0,6.272,2.779.445.445,0,0,0,.45-.411.433.433,0,0,0-.411-.45Z"
      transform="translate(-235.874 -150.529)"
      fill="#fff"
    />
    <path
      id="Path_601"
      data-name="Path 601"
      d="M748.735,169.416c.2.28.409.56.611.847a86.062,86.062,0,0,1,7.223,11.947c.166.32.329.647.486.971a90.732,90.732,0,0,1,8.805,32.223,88.112,88.112,0,0,1,.062,13.388c-.441,6.156-1.408,12.8.164,18.568a15.113,15.113,0,0,0,.583,1.778l29.769,11.347c.081-.008.159-.009.24-.017l1.168.507c.032-.229.061-.467.094-.7.019-.133.032-.268.052-.4.011-.089.021-.179.036-.258,0-.03.007-.059.008-.082.015-.08.02-.156.032-.229q.247-1.994.467-4c0-.007,0-.007,0-.016a129.559,129.559,0,0,0,.007-30.63c-.04-.3-.077-.613-.131-.921a84.086,84.086,0,0,0-2.977-13.394,74.3,74.3,0,0,0-2.609-7.054A61.81,61.81,0,0,0,782.5,186.96c-8.528-9.707-20.066-16.579-32.789-17.484C749.382,169.453,749.063,169.432,748.735,169.416Z"
      transform="translate(-235.874 -150.529)"
      fill="#f0f0f0"
    />
    <path
      id="Path_602"
      data-name="Path 602"
      d="M748.658,169.819A76.952,76.952,0,0,1,779.082,206.1a33.137,33.137,0,0,1,2.525,10.071,19.005,19.005,0,0,1-2.088,9.783c-1.4,2.841-3.151,5.586-3.832,8.717a11.638,11.638,0,0,0,2.1,9.284c2.367,3.334,5.79,5.618,9.216,7.736,3.8,2.351,7.791,4.733,10.239,8.6.3.469,1.007-.019.71-.487-4.259-6.73-12.6-8.838-17.918-14.471-2.482-2.628-4.186-6.02-3.642-9.711.476-3.227,2.284-6.059,3.722-8.924a20.282,20.282,0,0,0,2.4-9.489,30.636,30.636,0,0,0-2.128-10.131A74.658,74.658,0,0,0,768.831,186.8a78.32,78.32,0,0,0-19.8-17.759c-.468-.294-.833.487-.368.779Z"
      transform="translate(-235.874 -150.529)"
      fill="#fff"
    />
    <path
      id="Path_603"
      data-name="Path 603"
      d="M777.409,201.155a11.545,11.545,0,0,0,5.077-14.062c-.2-.518-1.01-.238-.814.281a10.691,10.691,0,0,1-4.749,13.071C776.44,200.717,776.93,201.426,777.409,201.155Z"
      transform="translate(-235.874 -150.529)"
      fill="#fff"
    />
    <path
      id="Path_604"
      data-name="Path 604"
      d="M780.415,224.6a22.253,22.253,0,0,1-13.11-9.545c-.3-.468-1.008.02-.71.487a23.146,23.146,0,0,0,13.663,9.905C780.795,225.589,780.95,224.741,780.415,224.6Z"
      transform="translate(-235.874 -150.529)"
      fill="#fff"
    />
    <path
      id="Path_605"
      data-name="Path 605"
      d="M762.749,180.8a6.535,6.535,0,0,1-6.036,1.421c-.535-.146-.69.7-.158.847a7.323,7.323,0,0,0,6.681-1.557.445.445,0,0,0,.112-.6.433.433,0,0,0-.6-.112Z"
      transform="translate(-235.874 -150.529)"
      fill="#fff"
    />
    <path
      id="Path_606"
      data-name="Path 606"
      d="M709.374,598.115c-99.8,0-181-81.2-181-181s81.2-181,181-181a182.794,182.794,0,0,1,31.5,2.731,1,1,0,1,1-.368,1.966,180.782,180.782,0,0,0-31.132-2.7c-98.7,0-179,80.3-179,179s80.3,179,179,179,179-80.3,179-179a178.548,178.548,0,0,0-46.7-120.569,1,1,0,1,1,1.478-1.348,180.544,180.544,0,0,1,47.217,121.917C890.374,516.919,809.178,598.115,709.374,598.115Z"
      transform="translate(-235.874 -150.529)"
      fill="#e4e4e4"
    />
    <circle
      id="Ellipse_21"
      data-name="Ellipse 21"
      cx="35.811"
      cy="35.811"
      r="35.811"
      transform="translate(517.496 76.041)"
      fill="var(--foreground-secondary)"
    />
    <path
      id="Path_607"
      data-name="Path 607"
      d="M784.3,281.019a3.982,3.982,0,0,1-3.186-1.594L771.34,266.4a3.983,3.983,0,0,1,6.374-4.78l6.392,8.522,16.416-24.624a3.984,3.984,0,1,1,6.629,4.419l-19.54,29.309a3.985,3.985,0,0,1-3.2,1.773Z"
      transform="translate(-235.874 -166.948)"
      fill="#fff"
    />
    <path
      id="Path_608"
      data-name="Path 608"
      d="M704.717,389.026,649.494,235.4l1.4-.5-10.156-28.257-1.4.5L622.381,159.97a14.255,14.255,0,0,0-18.237-8.593l-99.833,35.885a14.256,14.256,0,0,0-8.594,18.237l11.822,32.889-2.213.852,7.547,19.6,1.771-.682,1.567,4.359-1.885.726,7.547,19.6,1.444-.556,54.736,152.274a14.23,14.23,0,0,0,18.238,8.594l99.832-35.885a14.273,14.273,0,0,0,8.594-18.238Z"
      transform="translate(-235.874 -150.529)"
      fill="#3f3d56"
    />
    <path
      id="Path_609"
      data-name="Path 609"
      d="M591.041,438.086a6.845,6.845,0,0,1-6.424-4.524l-83.2-231.474a6.831,6.831,0,0,1,4.118-8.739l21.241-7.635-.032.743a7.874,7.874,0,0,0,10.53,7.742l47.141-16.945a7.974,7.974,0,0,0,4.488-5.636,7.808,7.808,0,0,0-1.861-6.835l-.5-.553,21.941-7.887a6.84,6.84,0,0,1,8.739,4.118L696.6,381.306a18.147,18.147,0,0,1-10.927,23.188L593.356,437.68a6.84,6.84,0,0,1-2.315.406Z"
      transform="translate(-235.874 -150.529)"
      fill="#fff"
    />
    <circle
      id="Ellipse_22"
      data-name="Ellipse 22"
      cx="27"
      cy="27"
      r="27"
      transform="translate(320.033 69.377)"
      fill="var(--foreground-secondary)"
    />
    <path
      id="Path_610"
      data-name="Path 610"
      d="M649.813,286.17l-93.5,33.61a2.362,2.362,0,1,1-1.6-4.445l93.5-33.61a2.362,2.362,0,1,1,1.6,4.445Z"
      transform="translate(-235.874 -173.658)"
      fill="#e6e6e6"
    />
    <path
      id="Path_611"
      data-name="Path 611"
      d="M622.046,307.48l-30.755,11.055a2.362,2.362,0,0,1-1.6-4.445l30.755-11.055a2.362,2.362,0,0,1,1.6,4.445Z"
      transform="translate(-235.874 -176.379)"
      fill="#e6e6e6"
    />
    <path
      id="Path_612"
      data-name="Path 612"
      d="M629.361,327.831l-30.755,11.055a2.362,2.362,0,0,1-1.6-4.445l30.755-11.055a2.362,2.362,0,0,1,1.6,4.445Z"
      transform="translate(-235.874 -179.831)"
      fill="#e6e6e6"
    />
    <path
      id="Path_613"
      data-name="Path 613"
      d="M633.108,338.255,602.352,349.31a2.362,2.362,0,1,1-1.6-4.445L631.51,333.81a2.362,2.362,0,1,1,1.6,4.445Z"
      transform="translate(-235.874 -181.6)"
      fill="#e6e6e6"
    />
    <path
      id="Path_614"
      data-name="Path 614"
      d="M642.9,311.313l-65.253,23.456a2.362,2.362,0,1,1-1.6-4.445L641.3,306.868a2.362,2.362,0,1,1,1.6,4.445Z"
      transform="translate(-235.874 -177.605)"
      fill="#e6e6e6"
    />
    <path
      id="Path_615"
      data-name="Path 615"
      d="M629.758,363.558l-11.167,4.014a4.016,4.016,0,1,1-2.717-7.559L627.041,356a4.016,4.016,0,0,1,2.717,7.559Z"
      transform="translate(-235.874 -185.127)"
      fill="var(--foreground-secondary)"
    />
    <circle
      id="Ellipse_23"
      data-name="Ellipse 23"
      cx="1.553"
      cy="1.553"
      r="1.553"
      transform="translate(304.329 32.827)"
      fill="#fff"
    />
    <path
      id="Path_616"
      data-name="Path 616"
      d="M363.157,272.252c17.406-20.488,45.647-33.4,71.684-26.706a123.863,123.863,0,0,0-46.635,71.113c-2.531,10.987-4.2,23.471-13.122,30.366-5.55,4.291-13.014,5.464-19.986,4.685s-13.608-3.323-20.155-5.845l-1.741.193C337.581,319.535,345.752,292.741,363.157,272.252Z"
      transform="translate(-235.874 -169.325)"
      fill="#f0f0f0"
    />
    <path
      id="Path_617"
      data-name="Path 617"
      d="M434.775,246.107A105.87,105.87,0,0,0,380.089,281.5a45.591,45.591,0,0,0-7.4,12.221,26.149,26.149,0,0,0-1.214,13.708c.685,4.3,1.883,8.62,1.511,13.013a16.011,16.011,0,0,1-6.514,11.358c-4.461,3.426-9.887,5.044-15.248,6.442-5.953,1.552-12.16,3.07-16.944,7.167-.58.5-1.316-.432-.737-.928,8.323-7.126,20.145-6.522,29.417-11.776,4.327-2.452,7.941-6.222,8.719-11.3.681-4.436-.551-8.892-1.282-13.24a27.9,27.9,0,0,1,.687-13.448,42.148,42.148,0,0,1,6.9-12.46,102.712,102.712,0,0,1,23.391-21.986,107.746,107.746,0,0,1,33.229-15.337c.735-.2.9.978.168,1.173Z"
      transform="translate(-235.874 -169.268)"
      fill="#fff"
    />
    <path
      id="Path_618"
      data-name="Path 618"
      d="M384.289,275.674a15.884,15.884,0,0,1-.985-20.544c.467-.6,1.425.1.957.7a14.708,14.708,0,0,0,.955,19.109c.524.554-.407,1.288-.928.737Z"
      transform="translate(-235.874 -168.395)"
      fill="#fff"
    />
    <path
      id="Path_619"
      data-name="Path 619"
      d="M370.846,305.29a30.615,30.615,0,0,0,21.1-7.246c.581-.494,1.318.434.737.928a31.844,31.844,0,0,1-21.974,7.5c-.763-.034-.624-1.211.135-1.177Z"
      transform="translate(-235.874 -175.227)"
      fill="#fff"
    />
    <path
      id="Path_620"
      data-name="Path 620"
      d="M411.8,254.842a8.991,8.991,0,0,0,7.362,4.311c.763.025.623,1.2-.135,1.177a10.075,10.075,0,0,1-8.155-4.751.612.612,0,0,1,.1-.832.6.6,0,0,1,.832.1Z"
      transform="translate(-235.874 -150.529)"
      fill="#fff"
    />
    <path
      id="Path_621"
      data-name="Path 621"
      d="M473.557,327.924c-.477,0-.954,0-1.437,0a118.4,118.4,0,0,0-19.142,1.58c-.49.073-.986.154-1.474.241a124.829,124.829,0,0,0-43.022,16.163,121.221,121.221,0,0,0-14.975,10.724c-6.508,5.454-13.13,11.886-20.832,14.787a20.8,20.8,0,0,1-2.452.784l-36.65-24.038c-.056-.1-.118-.185-.174-.281l-1.507-.893c.229-.221.471-.445.7-.665.132-.129.273-.252.4-.38.091-.084.182-.168.259-.249.03-.028.061-.056.085-.076.077-.081.157-.148.229-.221q2.024-1.883,4.082-3.745c.005-.008.005-.008.019-.011,10.477-9.428,21.834-18.064,34.14-24.7.37-.2.746-.408,1.133-.6a115.672,115.672,0,0,1,17.332-7.48,102.261,102.261,0,0,1,9.967-2.779,85.04,85.04,0,0,1,26.536-1.658c17.7,1.681,34.66,9,45.927,22.457C472.994,327.233,473.274,327.572,473.557,327.924Z"
      transform="translate(-235.874 -179.145)"
      fill="#f0f0f0"
    />
    <path
      id="Path_622"
      data-name="Path 622"
      d="M473.169,328.336a105.869,105.869,0,0,0-64.97-4.669,45.591,45.591,0,0,0-13.263,5.305,26.148,26.148,0,0,0-9.222,10.215c-2.042,3.846-3.686,8.017-6.628,11.3a16.011,16.011,0,0,1-12.04,5.147c-5.624.049-10.931-1.926-16.053-4.037-5.687-2.344-11.558-4.87-17.844-4.479-.762.047-.79-1.137-.03-1.184,10.936-.679,20.011,6.921,30.578,8.308,4.931.647,10.086-.187,13.762-3.769,3.214-3.132,4.913-7.431,6.948-11.344a27.9,27.9,0,0,1,8.645-10.324,42.147,42.147,0,0,1,13.01-5.8,102.712,102.712,0,0,1,31.914-3.472,107.747,107.747,0,0,1,35.765,7.761c.7.285.128,1.321-.572,1.038Z"
      transform="translate(-235.874 -180.222)"
      fill="#fff"
    />
    <path
      id="Path_623"
      data-name="Path 623"
      d="M415.057,321.547a15.884,15.884,0,0,1,11.583-17c.736-.2,1.081.934.344,1.134a14.708,14.708,0,0,0-10.742,15.832c.084.758-1.1.783-1.185.03Z"
      transform="translate(-235.874 -176.736)"
      fill="#fff"
    />
    <path
      id="Path_624"
      data-name="Path 624"
      d="M386.493,337.1a30.615,30.615,0,0,0,21.211,6.92c.762-.045.791,1.14.03,1.184a31.844,31.844,0,0,1-22.057-7.245c-.589-.487.231-1.343.816-.859Z"
      transform="translate(-235.874 -181.757)"
      fill="#fff"
    />
    <path
      id="Path_625"
      data-name="Path 625"
      d="M449.567,321.479a8.991,8.991,0,0,0,3.282,7.875c.594.479-.226,1.335-.816.859a10.075,10.075,0,0,1-3.651-8.7.612.612,0,0,1,.577-.607.6.6,0,0,1,.607.577Z"
      transform="translate(-235.874 -179.123)"
      fill="#fff"
    />
    <path
      id="Path_626"
      data-name="Path 626"
      d="M885.524,666.043c18.979,4.653,41.112.229,53.6-14.8a90.032,90.032,0,0,1-57.757-22.02c-6.17-5.393-12.472-12.034-20.663-12.3-5.1-.163-9.992,2.325-13.767,5.754s-6.6,7.754-9.381,12.027l-1.107.628C850.32,649.088,866.545,661.389,885.524,666.043Z"
      transform="translate(-235.874 -249.468)"
      fill="#f0f0f0"
    />
    <path
      id="Path_627"
      data-name="Path 627"
      d="M938.842,650.936a76.952,76.952,0,0,1-47.282,2.45A33.137,33.137,0,0,1,882,649.339a19.007,19.007,0,0,1-6.554-7.557c-1.429-2.825-2.563-5.879-4.653-8.308a11.638,11.638,0,0,0-8.675-3.915c-4.087-.117-7.972,1.241-11.725,2.7-4.167,1.621-8.47,3.371-13.032,3-.553-.045-.591.815-.039.86,7.938.652,14.643-4.739,22.342-5.594,3.593-.4,7.327.282,9.947,2.939,2.291,2.323,3.463,5.472,4.884,8.344a20.282,20.282,0,0,0,6.133,7.628,30.634,30.634,0,0,0,9.37,4.4,74.657,74.657,0,0,0,23.142,2.986,78.315,78.315,0,0,0,26.1-5.121c.516-.2.112-.959-.4-.763Z"
      transform="translate(-235.874 -233.437)"
      fill="#fff"
    />
    <path
      id="Path_628"
      data-name="Path 628"
      d="M896.512,655.026a11.545,11.545,0,0,0,8.171,12.52c.532.156.8-.663.266-.819a10.691,10.691,0,0,1-7.577-11.661c.072-.549-.789-.585-.86-.039Z"
      transform="translate(-235.874 -249.468)"
      fill="#fff"
    />
    <path
      id="Path_629"
      data-name="Path 629"
      d="M875.98,643.309a22.253,22.253,0,0,1,15.515-4.721c.553.043.591-.817.039-.86a23.146,23.146,0,0,0-16.135,4.945c-.435.345.148.979.581.636Z"
      transform="translate(-235.874 -249.468)"
      fill="#fff"
    />
    <path
      id="Path_630"
      data-name="Path 630"
      d="M921.591,655.577a6.535,6.535,0,0,1,2.5-5.675c.439-.34-.145-.973-.581-.636a7.323,7.323,0,0,0-2.779,6.272.445.445,0,0,0,.411.45.433.433,0,0,0,.45-.411Z"
      transform="translate(-235.874 -249.468)"
      fill="#fff"
    />
    <path
      id="Path_631"
      data-name="Path 631"
      d="M926.833,586.228c-.28.2-.56.409-.847.611a86.071,86.071,0,0,1-11.948,7.223c-.32.166-.647.329-.971.486a90.732,90.732,0,0,1-32.223,8.805,88.112,88.112,0,0,1-13.388.062c-6.156-.441-12.8-1.408-18.568.164a15.112,15.112,0,0,0-1.778.583l-11.347,29.769c.008.081.009.159.017.24l-.507,1.168c.229.032.467.061.7.094.133.019.268.032.4.052.089.011.179.021.258.036.03,0,.06.007.082.008.08.015.156.02.229.032q1.994.247,4,.467c.007,0,.007,0,.016,0a129.56,129.56,0,0,0,30.63.007c.3-.04.613-.077.921-.131a84.088,84.088,0,0,0,13.394-2.977,74.322,74.322,0,0,0,7.054-2.609,61.81,61.81,0,0,0,16.335-10.326c9.707-8.528,16.579-20.066,17.484-32.789C926.8,586.876,926.817,586.556,926.833,586.228Z"
      transform="translate(-235.874 -229.159)"
      fill="#f0f0f0"
    />
    <path
      id="Path_632"
      data-name="Path 632"
      d="M926.43,586.151a76.953,76.953,0,0,1-36.277,30.424,33.139,33.139,0,0,1-10.071,2.525,19.006,19.006,0,0,1-9.783-2.088c-2.841-1.4-5.586-3.151-8.717-3.832a11.638,11.638,0,0,0-9.284,2.1c-3.334,2.367-5.618,5.79-7.735,9.216-2.351,3.8-4.733,7.791-8.6,10.239-.469.3.019,1.007.487.71,6.73-4.259,8.838-12.6,14.471-17.918,2.628-2.482,6.02-4.186,9.711-3.642,3.227.476,6.059,2.284,8.924,3.722a20.282,20.282,0,0,0,9.489,2.4,30.638,30.638,0,0,0,10.131-2.128,74.658,74.658,0,0,0,20.275-11.549,78.318,78.318,0,0,0,17.759-19.805c.294-.468-.487-.833-.779-.368Z"
      transform="translate(-235.874 -228.944)"
      fill="#fff"
    />
    <path
      id="Path_633"
      data-name="Path 633"
      d="M895.094,614.9a11.545,11.545,0,0,0,14.062,5.077c.518-.2.238-1.01-.281-.814a10.691,10.691,0,0,1-13.071-4.749C895.531,613.933,894.823,614.423,895.094,614.9Z"
      transform="translate(-235.874 -227.965)"
      fill="#fff"
    />
    <path
      id="Path_634"
      data-name="Path 634"
      d="M871.646,617.909a22.253,22.253,0,0,1,9.545-13.11c.468-.3-.02-1.008-.487-.71a23.146,23.146,0,0,0-9.905,13.663c-.139.538.708.693.847.158Z"
      transform="translate(-235.874 -227.262)"
      fill="#fff"
    />
    <path
      id="Path_635"
      data-name="Path 635"
      d="M915.449,600.243a6.535,6.535,0,0,1-1.421-6.036c.146-.535-.7-.69-.847-.158a7.323,7.323,0,0,0,1.557,6.681.445.445,0,0,0,.6.112.433.433,0,0,0,.112-.6Z"
      transform="translate(-235.874 -224.629)"
      fill="#fff"
    />
    <path
      id="Path_636"
      data-name="Path 636"
      d="M961.571,483.63l-28.94,48.7,1.1.58-9.8,18.58-2.04-1.08-6.44,10.83,1.6.92-10.5,18.18-1.82-1.05L810.3,738.21a18.274,18.274,0,0,1-25.02,6.37L609.731,640.27a18.272,18.272,0,0,1-6.37-25.02l151.27-254.58a18.274,18.274,0,0,1,25.02-6.37L955.2,458.61a18.281,18.281,0,0,1,6.37,25.02Z"
      transform="translate(-235.874 -249.468)"
      fill="#3f3d56"
    />
    <path
      id="Path_637"
      data-name="Path 637"
      d="M791.537,734.753,615.369,630.076a5.634,5.634,0,0,1-1.963-7.712L765.679,366.09a5.634,5.634,0,0,1,7.713-1.963L949.56,468.8a5.634,5.634,0,0,1,1.963,7.712L799.25,732.79a5.634,5.634,0,0,1-7.712,1.963Z"
      transform="translate(-235.874 -249.468)"
      fill="#fff"
    />
    <circle
      id="Ellipse_24"
      data-name="Ellipse 24"
      cx="1.553"
      cy="1.553"
      r="1.553"
      transform="translate(626.475 215.81)"
      fill="#fff"
    />
    <path
      id="Path_638"
      data-name="Path 638"
      d="M854.291,595.994,707.234,508.615a4.066,4.066,0,1,1,4.154-6.991L858.445,589a4.066,4.066,0,0,1-4.154,6.991Z"
      transform="translate(-235.874 -219.417)"
      fill="#e6e6e6"
    />
    <path
      id="Path_639"
      data-name="Path 639"
      d="M795.572,582.454,747.2,553.713a4.066,4.066,0,1,1,4.154-6.991l48.371,28.741a4.066,4.066,0,1,1-4.154,6.991Z"
      transform="translate(-235.874 -220.168)"
      fill="#e6e6e6"
    />
    <path
      id="Path_640"
      data-name="Path 640"
      d="M776.554,614.461,728.183,585.72a4.066,4.066,0,1,1,4.154-6.991l48.371,28.741a4.066,4.066,0,1,1-4.154,6.991Z"
      transform="translate(-235.874 -225.803)"
      fill="#e6e6e6"
    />
    <path
      id="Path_641"
      data-name="Path 641"
      d="M766.813,630.855l-48.371-28.741a4.066,4.066,0,1,1,4.154-6.991l48.371,28.741a4.066,4.066,0,1,1-4.154,6.991Z"
      transform="translate(-235.874 -228.688)"
      fill="#e6e6e6"
    />
    <path
      id="Path_642"
      data-name="Path 642"
      d="M813.325,614.352,710.7,553.373a4.066,4.066,0,0,1,4.154-6.991l102.627,60.979a4.066,4.066,0,1,1-4.154,6.991Z"
      transform="translate(-235.874 -224.342)"
      fill="#e6e6e6"
    />
    <path
      id="Path_643"
      data-name="Path 643"
      d="M793.764,692.284,776.2,681.848a6.914,6.914,0,0,1,7.064-11.888L800.828,680.4a6.914,6.914,0,0,1-7.064,11.888Z"
      transform="translate(-235.874 -249.468)"
      fill="var(--foreground-secondary)"
    />
    <circle
      id="Ellipse_25"
      data-name="Ellipse 25"
      cx="36"
      cy="36"
      r="36"
      transform="translate(554.659 243.928)"
      fill="var(--foreground-secondary)"
    />
    <path
      id="Path_644"
      data-name="Path 644"
      d="M236.3,633.134H723.479V351.086a7.98,7.98,0,0,0-7.971-7.971H244.269a7.98,7.98,0,0,0-7.971,7.971Z"
      transform="translate(-235.874 -212.208)"
      fill="#cacaca"
    />
    <rect
      id="Rectangle_464"
      data-name="Rectangle 464"
      width="457.077"
      height="259.491"
      transform="translate(15.476 144.265)"
      fill="#fff"
    />
    <path
      id="Path_645"
      data-name="Path 645"
      d="M235.874,625.5v34.8a10.987,10.987,0,0,0,10.987,10.987H426.676v68.689h-2.389a1.427,1.427,0,0,0-1.427,1.427v4.778a1.427,1.427,0,0,0,1.427,1.427H535.914a1.427,1.427,0,0,0,1.427-1.427V741.41a1.427,1.427,0,0,0-1.427-1.427h-2.389V671.295H713.34a10.987,10.987,0,0,0,10.987-10.987V625.5Z"
      transform="translate(-235.874 -249.468)"
      fill="#3f3d56"
    />
    <path
      id="Path_646"
      data-name="Path 646"
      d="M642.287,440.923H425.833a5.145,5.145,0,1,1,0-10.29H642.287a5.145,5.145,0,1,1,0,10.29Z"
      transform="translate(-235.874 -197.607)"
      fill="#e6e6e6"
    />
    <path
      id="Path_647"
      data-name="Path 647"
      d="M569.659,464.149h-71.2a5.145,5.145,0,0,1,0-10.291h71.2a5.145,5.145,0,0,1,0,10.291Z"
      transform="translate(-235.874 -201.511)"
      fill="#e6e6e6"
    />
    <path
      id="Path_648"
      data-name="Path 648"
      d="M569.659,511.26h-71.2a5.145,5.145,0,0,1,0-10.291h71.2a5.145,5.145,0,0,1,0,10.291Z"
      transform="translate(-235.874 -209.43)"
      fill="#e6e6e6"
    />
    <path
      id="Path_649"
      data-name="Path 649"
      d="M569.659,535.39h-71.2a5.145,5.145,0,1,1,0-10.29h71.2a5.145,5.145,0,0,1,0,10.29Z"
      transform="translate(-235.874 -213.485)"
      fill="#e6e6e6"
    />
    <path
      id="Path_650"
      data-name="Path 650"
      d="M609.589,487.374H458.531a5.145,5.145,0,1,1,0-10.29H609.589a5.145,5.145,0,0,1,0,10.29Z"
      transform="translate(-235.874 -205.415)"
      fill="#e6e6e6"
    />
    <path
      id="Path_651"
      data-name="Path 651"
      d="M638.684,584.795H612.832a8.749,8.749,0,1,1,0-17.5h25.852a8.749,8.749,0,0,1,0,17.5Z"
      transform="translate(-235.874 -221.446)"
      fill="var(--foreground-secondary)"
    />
    <circle
      id="Ellipse_26"
      data-name="Ellipse 26"
      cx="45"
      cy="45"
      r="45"
      transform="translate(76.895 226.185)"
      fill="var(--foreground-secondary)"
    />
    <path
      id="Path_652"
      data-name="Path 652"
      d="M884.359,749.471H237.065a1.191,1.191,0,1,1,0-2.381H884.359a1.191,1.191,0,0,1,0,2.381Z"
      transform="translate(-235.874 -249.468)"
      fill="#cacaca"
    />
    <circle
      id="Ellipse_27"
      data-name="Ellipse 27"
      cx="1.696"
      cy="1.696"
      r="1.696"
      transform="translate(242.106 162.36)"
      fill="#fff"
    />
  </g>
</svg>
