<svg
  xmlns="http://www.w3.org/2000/svg"
  width="675.622"
  height="411.952"
  viewBox="0 0 675.622 411.952"
>
  <g id="undraw_devices_re_dxae" transform="translate(-91.327)">
    <path
      id="Path_78"
      data-name="Path 78"
      d="M576.472,654.024H772.063c7.721,0,7.734-12,0-12H576.472C568.751,642.024,568.738,654.024,576.472,654.024Z"
      transform="translate(-139.946 -244.024)"
      fill="#e6e6e6"
    />
    <path
      id="Path_79"
      data-name="Path 79"
      d="M523.665,393.255H328.732a7.777,7.777,0,0,0-7.767,7.767v38.725c9.724.229,16.035,8.253,17.565,17.993v35.107h.738a.444.444,0,0,1,.443.443v18.681a.444.444,0,0,1-.443.443h-.738v112.91c0,2.481-.025,7.007-.025,7.007H523.665a7.777,7.777,0,0,0,7.767-7.767V401.022a7.777,7.777,0,0,0-7.767-7.767Z"
      transform="translate(-139.946 -244.024)"
      fill="#3f3d56"
    />
    <path
      id="Path_80"
      data-name="Path 80"
      d="M885.845,265.834v211.9H544.914v-93.3a15.993,15.993,0,0,0-15.978-15.977H465V265.834Z"
      transform="translate(-139.946 -244.024)"
      fill="#3f3d56"
    />
    <path
      id="Path_81"
      data-name="Path 81"
      d="M906.9,507.607H545.3v-1.477H905.418V256.576A11.087,11.087,0,0,0,894.343,245.5H452.084a11.088,11.088,0,0,0-11.075,11.075v110.93h-1.477V256.576a12.566,12.566,0,0,1,12.552-12.552H894.343A12.566,12.566,0,0,1,906.9,256.576Z"
      transform="translate(-139.946 -244.024)"
      fill="#3f3d56"
    />
    <path
      id="Path_82"
      data-name="Path 82"
      d="M872.632,552.645H545.3v-1.477H872.632a32.823,32.823,0,0,0,32.786-32.786V507.607H545.3v-1.477H906.9v12.252a34.3,34.3,0,0,1-34.263,34.262Z"
      transform="translate(-139.946 -244.024)"
      fill="#3f3d56"
    />
    <path
      id="Path_83"
      data-name="Path 83"
      d="M775.485,625c-18.248-17.522-30.252-40.384-34.111-72.356H606.885c-1.368,29.912-13.3,52.345-34.813,72.277L569.8,625c22.2-20.118,34.427-42.716,35.641-73.125l.028-.709H742.687l.076.653c3.79,32.514,16.045,55.523,34.743,73.062Z"
      transform="translate(-139.946 -244.024)"
      fill="#3f3d56"
    />
    <path
      id="Path_84"
      data-name="Path 84"
      d="M528.58,655.548H321.407v-1.477H528.58a16,16,0,0,0,15.977-15.977V384.778A16,16,0,0,0,528.58,368.8H321.407a16,16,0,0,0-15.977,15.977v54.667h-1.477V384.778a17.473,17.473,0,0,1,17.453-17.453H528.58a17.473,17.473,0,0,1,17.453,17.453V638.095a17.473,17.473,0,0,1-17.454,17.453Z"
      transform="translate(-139.946 -244.024)"
      fill="#3f3d56"
    />
    <path
      id="Path_85"
      data-name="Path 85"
      d="M424.993,386.007A5.007,5.007,0,1,1,430,381,5.007,5.007,0,0,1,424.993,386.007Zm0-8.856A3.849,3.849,0,1,0,428.843,381a3.849,3.849,0,0,0-3.849-3.849Z"
      transform="translate(-139.946 -244.024)"
      fill="#3f3d56"
    />
    <path
      id="Path_86"
      data-name="Path 86"
      d="M424.993,649.888a6.388,6.388,0,1,1,6.388-6.388,6.388,6.388,0,0,1-6.388,6.388Zm0-11.3a4.912,4.912,0,1,0,4.912,4.912,4.912,4.912,0,0,0-4.912-4.912Z"
      transform="translate(-139.946 -244.024)"
      fill="#3f3d56"
    />
    <path
      id="Path_87"
      data-name="Path 87"
      d="M319.326,655.976h-68.58A19.5,19.5,0,0,1,231.273,636.5V458.919a19.5,19.5,0,0,1,19.473-19.473h68.58A19.5,19.5,0,0,1,338.8,458.919V490.7a1.923,1.923,0,0,1,1.182,1.772v20.678a1.923,1.923,0,0,1-1.182,1.772V636.5a19.5,19.5,0,0,1-19.473,19.473Zm-68.58-215.054a18.017,18.017,0,0,0-18,18V636.5a18.017,18.017,0,0,0,18,18h68.58a18.017,18.017,0,0,0,18-18V513.592h.738a.443.443,0,0,0,.443-.443V492.47a.444.444,0,0,0-.443-.443h-.738V458.919a18.017,18.017,0,0,0-18-18Z"
      transform="translate(-139.946 -244.024)"
      fill="#3f3d56"
    />
    <path
      id="Path_88"
      data-name="Path 88"
      d="M320.082,445.058H311.13a6.647,6.647,0,0,1-6.154,9.158H265.687a6.647,6.647,0,0,1-6.154-9.158h-8.361a13.991,13.991,0,0,0-13.991,13.991V636.372a13.991,13.991,0,0,0,13.991,13.991h68.91a13.991,13.991,0,0,0,13.991-13.991h0V459.049a13.991,13.991,0,0,0-13.991-13.991Z"
      transform="translate(-139.946 -244.024)"
      fill="#3f3d56"
    />
    <path
      id="Path_90"
      data-name="Path 90"
      d="M775.941,655.273H571.424a15.5,15.5,0,0,1,0-31.01H775.941a15.5,15.5,0,0,1,0,31.01ZM571.424,625.74a14.028,14.028,0,0,0,0,28.057H775.941a14.028,14.028,0,0,0,0-28.057Z"
      transform="translate(-139.946 -244.024)"
      fill="#3f3d56"
    />
  </g>
</svg>
