<svg
  xmlns="http://www.w3.org/2000/svg"
  width="84.012"
  height="84.012"
  viewBox="0 0 84.012 84.012"
>
  <path
    id="Path_45"
    data-name="Path 45"
    d="M464.158,319.533a42,42,0,1,1,35.148-47.881,42,42,0,0,1-35.148,47.881Zm-12.43-81.052a40,40,0,1,0,45.6,33.474A40,40,0,0,0,451.728,238.481Z"
    transform="translate(-415.786 -236.013)"
    fill="#3f3d56"
  />
  <path
    id="Path_49"
    data-name="Path 49"
    d="M479.771,263.011l4.791-1.746s-3.439,5.282-4.184,5.7h0a20.125,20.125,0,0,0,.455,2.965c-3.244,42.179-40.994,29.555-40.994,29.555,12.8-1.659,13.08-7.064,13.08-7.064-7.58.05-9.806-4.566-9.806-4.566a3.09,3.09,0,0,0,3.8-1.595c-8.325-.848-8.435-8.823-8.435-8.823a10.4,10.4,0,0,0,5.131,1.135c-1.056-.951-9.948-8.794-6.114-14.137,0,0,7.051,9.036,21.718,7.7l.958-.349a7.85,7.85,0,0,1-.531-2.144,10.5,10.5,0,0,1,8.787-11.97h0c6.919-1.061,9.008,2.665,9.008,2.665l4.487-3.723C481.826,256.626,482.09,261.644,479.771,263.011Z"
    transform="translate(-418.547 -236.927)"
    fill="#3f3d56"
  />
</svg>
