<svg xmlns="http://www.w3.org/2000/svg" width="674.07" height="434.547" viewBox="0 0 674.07 434.547">
  <g id="undraw_code_review_re_woeb" transform="translate(-252.552)">
    <path id="Path_753" data-name="Path 753" d="M1046.811,584.505H405.972a16.519,16.519,0,0,1-16.5-16.5V172.852a12.1,12.1,0,0,1,12.088-12.088h649.453a12.311,12.311,0,0,1,12.3,12.3V568.005A16.519,16.519,0,0,1,1046.811,584.505Z" transform="translate(-136.689 -149.958)" fill="#f2f2f2"/>
    <path id="Path_754" data-name="Path 754" d="M1026.091,563.673H428.846c-8.755,0-15.878-6.67-15.878-14.868V204.7c0-6.08,5.278-11.027,11.766-11.027h605.274c6.6,0,11.961,5.028,11.961,11.208V548.8C1041.969,557,1034.846,563.673,1026.091,563.673Z" transform="translate(-136.689 -149.958)" fill="#fff"/>
    <path id="Path_755" data-name="Path 755" d="M1063.081,174.908H389.241v-8.4a16.574,16.574,0,0,1,16.56-16.55h640.72a16.574,16.574,0,0,1,16.56,16.55Z" transform="translate(-136.689 -149.958)" fill="#3f3d56"/>
    <circle id="Ellipse_50" data-name="Ellipse 50" cx="4.283" cy="4.283" r="4.283" transform="translate(278.364 8.217)" fill="#fff"/>
    <circle id="Ellipse_51" data-name="Ellipse 51" cx="4.283" cy="4.283" r="4.283" transform="translate(294.622 8.217)" fill="#fff"/>
    <circle id="Ellipse_52" data-name="Ellipse 52" cx="4.283" cy="4.283" r="4.283" transform="translate(310.881 8.217)" fill="#fff"/>
    <g id="Group_399" data-name="Group 399" transform="translate(-418.72 127.03)" opacity="0.7">
      <path id="Path_955" data-name="Path 955" d="M933,179.57h165.67V340.71H933Z" transform="translate(-17.96 -172.03)" fill="#2e001e"/>
      <path id="Path_956" data-name="Path 956" d="M925.51,172V348.24h180.73V172Zm7.53,7.54h165.67V340.71H933Z" transform="translate(-17.96 -172.03)" fill="#ff2bc2"/>
      <path id="Path_957" data-name="Path 957" d="M1056.76,246.06a10.289,10.289,0,0,0-4.37-.76c-9.48,0-15.81,7.31-15.81,19.43,0,13.86,6.48,19.43,14.91,19.43a14.059,14.059,0,0,0,5.2-.83V246.06ZM1023,265.34c0-17.55,11.29-31.26,29.82-31.26a31.313,31.313,0,0,1,3.91.16V214.66a.76.76,0,0,1,.76-.76h12.12c.6,0,.75.23.75.61v68.82a53.042,53.042,0,0,0,.38,7.38c0,.53,0,.61-.45.83a44.931,44.931,0,0,1-19.28,4.37c-16.34,0-28-10.09-28-30.57Zm-25.68-12.2L1018.43,294c.38.6.15,1.2-.45,1.2h-13.1a1.47,1.47,0,0,1-1.58-1q-7.23-14.91-14.76-30.95h-.15c-4.52,10.09-9.49,21.09-14.31,31a1.45,1.45,0,0,1-1.36.83h-12.5c-.75,0-.82-.61-.45-1.06l20.63-39.68L960.45,215a.67.67,0,0,1,.53-1.13h12.95c.75,0,1.13.15,1.35.83,4.75,10,9.57,19.88,14.09,30h.15c4.36-9.94,9.18-20,13.78-29.82.37-.61.6-1,1.35-1h12.13c.6,0,.82.45.45,1.13l-19.88,38.18Z" transform="translate(-17.96 -172.03)" fill="#ff2bc2"/>
    </g>
  </g>
</svg>
